<svg width="20" height="20" viewBox="0 0 20 20" fill="none" xmlns="http://www.w3.org/2000/svg">
<path d="M6.25 4.12109H13.3333C14.0237 4.12109 14.5833 4.68074 14.5833 5.37109V6.62109" stroke="black" stroke-linecap="round" stroke-linejoin="round"/>
<path d="M12.5 10.7878H7.5" stroke="black" stroke-linecap="round" stroke-linejoin="round"/>
<path d="M10 14.1211H7.5" stroke="black" stroke-linecap="round" stroke-linejoin="round"/>
<path d="M15.4142 1.66675L5.25647 1.66676C4.84234 1.66676 4.41876 1.72753 4.084 1.97326C3.02257 2.75241 2.20457 4.49009 3.85645 6.05891C4.32026 6.49941 4.96856 6.6591 5.60585 6.6591H15.2363C15.8976 6.6591 17.0834 6.75374 17.0834 8.77283V14.9844C17.0834 16.834 15.592 18.3334 13.7522 18.3334H6.22713C4.3908 18.3334 3.05524 17.0356 2.94974 15.0595L2.92183 4.3054" stroke="black" stroke-linecap="round"/>
</svg>
