<svg width="23" height="24" viewBox="0 0 23 24" fill="none" xmlns="http://www.w3.org/2000/svg">
<g clip-path="url(#clip0_3925_17535)">
<path d="M22.8026 16.2851L21.0212 14.5035V8.39277L22.1842 7.97346C22.4512 7.87716 22.6292 7.62396 22.6295 7.34008C22.6297 7.05629 22.452 6.80273 22.1851 6.70611L11.5441 2.85245C11.396 2.79878 11.2335 2.79878 11.0853 2.85245L0.444374 6.70611C0.178507 6.80241 0.00108217 7.0544 4.14973e-06 7.33716C-0.000984037 7.61991 0.174599 7.8732 0.439702 7.97144L4.3668 9.42618V13.8666C4.3668 14.0044 4.40902 14.1389 4.48785 14.2519C4.5312 14.3141 4.94179 14.8748 5.99304 15.4039C7.32112 16.0725 9.06302 16.4115 11.1703 16.4115C13.276 16.4115 15.0267 16.0732 16.3738 15.4059C17.4354 14.8801 17.8596 14.3252 17.9046 14.2637C17.9886 14.1484 18.034 14.0094 18.034 13.8666V9.46966L19.6737 8.8785V14.5035L17.8922 16.2851C17.7658 16.4114 17.6948 16.5828 17.6948 16.7614C17.6948 16.9401 17.7658 17.1115 17.8922 17.2378L19.6737 19.0193V20.514C19.6737 20.8861 19.9753 21.1878 20.3474 21.1878C20.7195 21.1878 21.0212 20.8861 21.0212 20.514V19.0193L22.8027 17.2378C23.0658 16.9748 23.0658 16.5481 22.8026 16.2851ZM11.3147 4.20254L19.9731 7.33819L11.1735 10.5107L2.63267 7.34677L11.3147 4.20254ZM16.6864 13.598C14.3831 15.6706 7.53861 15.433 5.71433 13.6048V9.9254L10.9362 11.8598C11.0191 11.8729 11.0973 11.9444 11.3988 11.8619L16.6864 9.95558L16.6864 13.598ZM20.3474 17.7875L19.3213 16.7614L20.3474 15.7354L21.3734 16.7614L20.3474 17.7875Z" fill="#636370"/>
</g>
<defs>
<clipPath id="clip0_3925_17535">
<rect width="23" height="23" fill="white" transform="translate(0 0.5)"/>
</clipPath>
</defs>
</svg>
