<svg width="28" height="28" viewBox="0 0 28 28" fill="none" xmlns="http://www.w3.org/2000/svg">
<path d="M23.3335 17.5C23.3335 19.6744 23.3335 20.7615 22.9783 21.6192C22.5046 22.7626 21.5961 23.6711 20.4527 24.1447C19.5951 24.5 18.5078 24.5 16.3335 24.5H12.8335C8.43377 24.5 6.23386 24.5 4.86703 23.1331C3.50019 21.7663 3.50021 19.5664 3.50024 15.1665L3.50031 8.16647C3.50034 5.58924 5.5896 3.5 8.16683 3.5" stroke="#121D35" stroke-width="2" stroke-linecap="round" stroke-linejoin="round"/>
<path d="M11.6669 9.91675L12.1729 14.5471C12.2212 14.9342 12.4591 15.2716 12.8175 15.4256C13.6178 15.7693 15.1168 16.3334 16.3336 16.3334C17.5506 16.3334 19.0495 15.7693 19.8498 15.4256C20.2082 15.2716 20.4461 14.9342 20.4944 14.5471L21.0003 9.91675M23.9169 8.75008V13.1475M16.3336 4.66675L8.16699 8.16675L16.3336 11.6667L24.5003 8.16675L16.3336 4.66675Z" stroke="#121D35" stroke-width="2" stroke-linecap="round" stroke-linejoin="round"/>
</svg>
