<svg width="28" height="28" viewBox="0 0 28 28" fill="none" xmlns="http://www.w3.org/2000/svg">
<path d="M14.5833 22.166V25.666" stroke="white" stroke-width="1.75" stroke-linecap="round" stroke-linejoin="round"/>
<path d="M12.25 25.666H16.9167" stroke="white" stroke-width="2" stroke-linecap="round" stroke-linejoin="round"/>
<path d="M15.7501 18.6673C11.2398 18.6673 7.58341 15.011 7.58341 10.5007C7.58341 5.99033 11.2398 2.33398 15.7501 2.33398C20.2604 2.33398 23.9167 5.99033 23.9167 10.5007C23.9167 15.011 20.2604 18.6673 15.7501 18.6673Z" stroke="white" stroke-width="2" stroke-linecap="round"/>
<path d="M9.91675 4.66732C10.6801 4.71223 11.0745 5.08614 11.7525 5.8025C12.977 7.09639 14.2016 7.20435 15.0179 6.77306C16.2424 6.12612 15.2134 5.07823 16.6506 4.50876C17.5873 4.13759 17.718 3.12762 17.1966 2.33398" stroke="white" stroke-width="2" stroke-linejoin="round"/>
<path d="M23.3334 11.666C21.5834 11.666 21.2728 13.1206 19.8334 12.8327C16.9167 12.2493 16.0903 12.9014 16.0903 14.2923C16.0903 15.6831 16.0903 15.6831 15.4837 16.7262C15.0892 17.4047 14.9513 18.0831 15.7377 18.666" stroke="white" stroke-width="2" stroke-linejoin="round"/>
<path d="M7.58325 2.33398C5.42333 4.43393 4.08325 7.36022 4.08325 10.5969C4.08325 16.9871 9.30659 22.1673 15.7499 22.1673C18.9297 22.1673 21.8122 20.9058 23.9166 18.8598" stroke="white" stroke-width="2" stroke-linecap="round"/>
</svg>
