<svg width="28" height="28" viewBox="0 0 28 28" fill="none" xmlns="http://www.w3.org/2000/svg">
<path d="M2.91663 6.99935L9.33329 4.66602L15.75 6.99935L12.8333 8.74935V10.4993C12.8333 10.4993 12.0555 9.91602 9.33329 9.91602C6.61107 9.91602 5.83329 10.4993 5.83329 10.4993V8.74935L2.91663 6.99935ZM2.91663 6.99935V11.666" stroke="white" stroke-width="2" stroke-linecap="round" stroke-linejoin="round"/>
<path d="M12.8334 9.91602V10.9531C12.8334 12.9576 11.2664 14.5827 9.33337 14.5827C7.40038 14.5827 5.83337 12.9576 5.83337 10.9531V9.91602" stroke="white" stroke-width="2" stroke-linecap="round" stroke-linejoin="round"/>
<path d="M17.8712 12.8676C17.8712 12.8676 18.4368 12.4559 20.4167 12.4559C22.3965 12.4559 22.9621 12.8676 22.9621 12.8676M17.8712 12.8676V11.6667L15.75 10.5L20.4167 8.75L25.0833 10.5L22.9621 11.6667V12.8676M17.8712 12.8676V13.2046C17.8712 14.6104 19.0108 15.75 20.4167 15.75C21.8225 15.75 22.9621 14.6104 22.9621 13.2046V12.8676" stroke="white" stroke-width="2" stroke-linecap="round" stroke-linejoin="round"/>
<path d="M5.11593 18.5804C4.01555 19.1946 1.13043 20.4489 2.88767 22.0184C3.74605 22.785 4.70209 23.3334 5.90405 23.3334H12.7627C13.9647 23.3334 14.9207 22.785 15.7791 22.0184C17.5363 20.4489 14.6512 19.1946 13.5508 18.5804C10.9705 17.1399 7.69629 17.1399 5.11593 18.5804Z" stroke="white" stroke-width="2" stroke-linecap="round" stroke-linejoin="round"/>
<path d="M18.6666 23.3327H22.9889C23.8904 23.3327 24.6074 22.894 25.2512 22.2807C26.5692 21.0251 24.4053 20.0217 23.58 19.5303C22.0922 18.6443 20.2967 18.4396 18.6666 18.9158" stroke="white" stroke-width="2" stroke-linecap="round" stroke-linejoin="round"/>
</svg>
