<svg width="28" height="28" viewBox="0 0 28 28" fill="none" xmlns="http://www.w3.org/2000/svg">
<path d="M2.3335 25.6667H25.0835" stroke="#121D35" stroke-width="1.75" stroke-linecap="round" stroke-linejoin="round"/>
<path d="M3.5 15.1667V25.6667M24.5 15.1667V25.6667" stroke="#121D35" stroke-width="2" stroke-linecap="round" stroke-linejoin="round"/>
<path d="M8.75 9.33325V25.6666M19.25 9.33325V25.6666" stroke="#121D35" stroke-width="2" stroke-linecap="round" stroke-linejoin="round"/>
<path d="M2.3335 15.1667H8.16683M25.6668 15.1667H19.8335" stroke="#121D35" stroke-width="2" stroke-linecap="round" stroke-linejoin="round"/>
<path d="M7.5835 9.33325H20.4168" stroke="#121D35" stroke-width="2" stroke-linecap="round" stroke-linejoin="round"/>
<path d="M14 9.33326V5.8125M14 5.8125V3.46533C14 2.9121 14 2.63548 14.1708 2.46361C14.7071 1.92421 16.9167 3.20012 17.757 3.71754C18.4666 4.15448 18.6667 5.02725 18.6667 5.8125H14Z" stroke="#121D35" stroke-width="2" stroke-linecap="round" stroke-linejoin="round"/>
<path d="M14 25.6666V23.3333" stroke="#121D35" stroke-width="2" stroke-linecap="round" stroke-linejoin="round"/>
<path d="M12.25 14V14.5833M15.75 14V14.5833" stroke="#121D35" stroke-width="2" stroke-linecap="round" stroke-linejoin="round"/>
<path d="M12.25 18.6667V19.2501M15.75 18.6667V19.2501" stroke="#121D35" stroke-width="2" stroke-linecap="round" stroke-linejoin="round"/>
</svg>
