<svg width="22" height="22" viewBox="0 0 22 22" fill="none" xmlns="http://www.w3.org/2000/svg">
<path d="M11.5044 17.6667V20.6668" stroke="#636370" stroke-linecap="round" stroke-linejoin="round"/>
<path d="M9.15186 20.6667H13.8576" stroke="#636370" stroke-linecap="round" stroke-linejoin="round"/>
<path d="M12.6814 14.6669C8.13328 14.6669 4.44629 11.5328 4.44629 7.66682C4.44629 3.80079 8.13328 0.666748 12.6814 0.666748C17.2295 0.666748 20.9165 3.80079 20.9165 7.66682C20.9165 11.5328 17.2295 14.6669 12.6814 14.6669Z" stroke="#636370" stroke-linecap="round"/>
<path d="M6.79932 2.66677C7.56908 2.70527 7.96677 3.02576 8.65045 3.63979C9.88524 4.74885 11.12 4.84139 11.9432 4.47171C13.178 3.91718 12.1404 3.01898 13.5896 2.53086C14.5342 2.21271 14.666 1.34701 14.1402 0.666748" stroke="#636370" stroke-linejoin="round"/>
<path d="M20.3284 8.66675C18.5637 8.66675 18.2505 9.91356 16.799 9.66676C13.8579 9.16675 13.0245 9.72566 13.0245 10.9179C13.0245 12.11 13.0245 12.11 12.4129 13.0041C12.015 13.5857 11.876 14.1672 12.669 14.6668" stroke="#636370" stroke-linejoin="round"/>
<path d="M4.44583 0.666748C2.26781 2.46672 0.916504 4.97499 0.916504 7.74933C0.916504 13.2267 6.18362 17.6669 12.6809 17.6669C15.8873 17.6669 18.794 16.5856 20.916 14.8319" stroke="#636370" stroke-linecap="round"/>
</svg>
