<svg width="38" height="38" viewBox="0 0 38 38" fill="none" xmlns="http://www.w3.org/2000/svg">
<rect width="38" height="38" rx="19" fill="#F2EDFF"/>
<path d="M27.0002 22C27.0002 23.8638 27.0002 24.7956 26.6957 25.5307C26.2897 26.5108 25.511 27.2895 24.5309 27.6955C23.7958 28 22.8639 28 21.0002 28H18.0002C14.229 28 12.3433 28 11.1718 26.8284C10.0002 25.6568 10.0002 23.7712 10.0002 19.9999L10.0003 13.9998C10.0003 11.7908 11.7911 10 14.0002 10" stroke="#5525C9" stroke-width="1.5" stroke-linecap="round" stroke-linejoin="round"/>
<path d="M17.0002 15.5L17.4339 19.4689C17.4753 19.8007 17.6792 20.0899 17.9864 20.2219C18.6724 20.5165 19.9572 21 21.0002 21C22.0433 21 23.3281 20.5165 24.0141 20.2219C24.3213 20.0899 24.5252 19.8007 24.5666 19.4689L25.0002 15.5M27.5002 14.5V18.2692M21.0002 11L14.0002 14L21.0002 17L28.0002 14L21.0002 11Z" stroke="#5525C9" stroke-width="1.5" stroke-linecap="round" stroke-linejoin="round"/>
</svg>
