<svg width="20" height="20" viewBox="0 0 20 20" fill="none" xmlns="http://www.w3.org/2000/svg">
<path d="M2.08325 4.99992L6.66659 3.33325L11.2499 4.99992L9.16659 6.24992V7.49992C9.16659 7.49992 8.611 7.08325 6.66659 7.08325C4.72214 7.08325 4.16659 7.49992 4.16659 7.49992V6.24992L2.08325 4.99992ZM2.08325 4.99992V8.33325" stroke="#636370" stroke-width="1.5" stroke-linecap="round" stroke-linejoin="round"/>
<path d="M9.16675 7.08325V7.82399C9.16675 9.25584 8.04746 10.4166 6.66675 10.4166C5.28604 10.4166 4.16675 9.25584 4.16675 7.82399V7.08325" stroke="#636370" stroke-width="1.5" stroke-linecap="round" stroke-linejoin="round"/>
<path d="M12.7652 9.19117C12.7652 9.19117 13.1692 8.89708 14.5833 8.89708C15.9975 8.89708 16.4015 9.19117 16.4015 9.19117M12.7652 9.19117V8.33333L11.25 7.5L14.5833 6.25L17.9167 7.5L16.4015 8.33333V9.19117M12.7652 9.19117V9.43183C12.7652 10.436 13.5792 11.25 14.5833 11.25C15.5875 11.25 16.4015 10.436 16.4015 9.43183V9.19117" stroke="#636370" stroke-width="1.5" stroke-linecap="round" stroke-linejoin="round"/>
<path d="M3.65429 13.2717C2.86831 13.7104 0.807505 14.6064 2.06267 15.7274C2.67581 16.275 3.35869 16.6667 4.21723 16.6667H9.11625C9.97483 16.6667 10.6577 16.275 11.2708 15.7274C12.526 14.6064 10.4652 13.7104 9.67916 13.2717C7.83609 12.2428 5.49741 12.2428 3.65429 13.2717Z" stroke="#636370" stroke-width="1.5" stroke-linecap="round" stroke-linejoin="round"/>
<path d="M13.3333 16.6666H16.4206C17.0645 16.6666 17.5767 16.3532 18.0365 15.9152C18.9779 15.0183 17.4323 14.3016 16.8428 13.9506C15.7801 13.3177 14.4976 13.1715 13.3333 13.5117" stroke="#636370" stroke-width="1.5" stroke-linecap="round" stroke-linejoin="round"/>
</svg>
