<svg width="20" height="20" viewBox="0 0 20 20" fill="none" xmlns="http://www.w3.org/2000/svg">
<g clip-path="url(#clip0_3492_1672)">
<path d="M6.91034 5.68813H5.63595C5.32928 5.68813 5.07975 5.43832 5.07975 5.13131C5.07975 4.82323 5.32889 4.57448 5.63587 4.57448C5.63873 4.57448 5.64156 4.57452 5.64442 4.57452H6.86477C7.08391 4.57672 7.30061 4.67515 7.45956 4.84487C7.68167 5.08197 8.05391 5.09405 8.29101 4.87201C8.5281 4.64989 8.54026 4.27766 8.31814 4.04056C7.9394 3.63625 7.41218 3.40209 6.87163 3.39805C6.87014 3.39805 6.86869 3.39805 6.86724 3.39805H6.8614V2.87534C6.8614 2.55048 6.59803 2.28711 6.27316 2.28711C5.9483 2.28711 5.68493 2.55048 5.68493 2.87534V3.39801C4.61728 3.39801 3.90332 4.21711 3.90332 5.13127C3.90332 6.08699 4.68058 6.86456 5.63599 6.86456H6.91038C7.21705 6.86456 7.46658 7.11432 7.46658 7.42134C7.46658 7.72946 7.21744 7.97817 6.9105 7.97817C6.90763 7.97817 6.90477 7.97813 6.90195 7.97813H5.57046C5.41567 7.97656 5.25132 7.92072 5.10744 7.82084C4.84054 7.63546 4.47403 7.70166 4.28877 7.9686C4.10352 8.23546 4.16963 8.60197 4.43654 8.78723C4.86022 9.08138 5.24183 9.1546 5.68497 9.1546V9.67727C5.68497 10.0021 5.94834 10.2655 6.2732 10.2655C6.59807 10.2655 6.86144 10.0021 6.86144 9.67727V9.1546C7.93677 9.1546 8.64305 8.3284 8.64305 7.42134C8.64301 6.46566 7.86575 5.68813 6.91034 5.68813Z" fill="#636370"/>
<path d="M12.4098 7.58667C13.2429 3.66357 10.2376 0 6.27341 0C2.81424 0 0 2.81565 0 6.27651C0 10.2429 3.66478 13.2545 7.59098 12.4142C6.75843 16.3233 9.75086 20 13.7266 20C17.1858 20 20 17.1844 20 13.7235C20 9.75824 16.3356 6.74431 12.4098 7.58667ZM1.17647 6.27651C1.17647 3.46435 3.46294 1.17647 6.27341 1.17647C9.81173 1.17647 12.286 4.72122 11.0554 8.04541C9.73678 8.66882 8.6689 9.73867 8.04757 11.0589C4.72643 12.2951 1.17647 9.82239 1.17647 6.27651ZM13.7266 18.8235C10.9162 18.8235 8.62973 16.5357 8.62973 13.7235C8.62973 10.9114 10.9162 8.62357 13.7266 8.62357C16.5371 8.62357 18.8235 10.9114 18.8235 13.7235C18.8235 16.5357 16.5371 18.8235 13.7266 18.8235Z" fill="#636370"/>
<path d="M15.7339 15.7859C14.9127 15.5252 14.0545 15.4424 13.2087 15.5384C13.3279 15.1727 13.4119 14.7974 13.4603 14.4165H14.1652C14.49 14.4165 14.7534 14.1531 14.7534 13.8283C14.7534 13.5034 14.49 13.24 14.1652 13.24H13.4955C13.4833 13.054 13.4758 13.001 13.426 12.5466C13.3436 11.7935 14.2783 11.3908 14.7731 11.9489C14.9886 12.192 15.3604 12.2144 15.6035 11.9988C15.8466 11.7833 15.869 11.4115 15.6534 11.1684C14.405 9.76023 12.0488 10.7812 12.2566 12.6748C12.3097 13.1589 12.3057 13.1155 12.3157 13.24H11.8973C11.5725 13.24 11.3091 13.5034 11.3091 13.8282C11.3091 14.1531 11.5725 14.4165 11.8973 14.4165H12.2717C12.1812 14.989 11.9903 15.5438 11.7025 16.0602C11.4484 16.5162 11.8731 17.0545 12.3758 16.9127C13.3719 16.6323 14.3007 16.5651 15.3779 16.9072C15.6871 17.0054 16.0182 16.8346 16.1166 16.5245C16.2148 16.2149 16.0435 15.8842 15.7339 15.7859Z" fill="#636370"/>
<path d="M14.6078 1.84981C15.7605 1.84981 16.9856 2.7202 16.9856 4.33326V4.88714L16.4558 4.3571C16.2262 4.1273 15.8537 4.1273 15.6239 4.35687C15.3942 4.58652 15.394 4.95899 15.6237 5.18875L17.1577 6.72365C17.3853 6.9515 17.7589 6.95483 17.9898 6.72365L19.5239 5.18875C19.7535 4.95899 19.7535 4.58656 19.5236 4.35687C19.2939 4.12718 18.9214 4.1273 18.6918 4.3571L18.162 4.88718V4.33326C18.162 2.19322 16.5362 0.67334 14.6078 0.67334C14.2829 0.67334 14.0195 0.936712 14.0195 1.26158C14.0195 1.58644 14.283 1.84981 14.6078 1.84981Z" fill="#636370"/>
<path d="M5.39201 18.1499C4.23934 18.1499 3.01428 17.2795 3.01428 15.6665V15.1125L3.54408 15.6426C3.77369 15.8723 4.14608 15.8726 4.37597 15.6428C4.60577 15.4132 4.60585 15.0407 4.3762 14.811L2.84212 13.276C2.61455 13.048 2.2402 13.0454 2.01004 13.276L0.475887 14.811C0.24624 15.0408 0.246319 15.4132 0.476123 15.6429C0.705848 15.8725 1.07832 15.8725 1.30801 15.6426L1.83781 15.1126V15.6665C1.83781 17.8065 3.46357 19.3264 5.39201 19.3264C5.71687 19.3264 5.98024 19.063 5.98024 18.7381C5.98024 18.4133 5.71687 18.1499 5.39201 18.1499Z" fill="#636370"/>
</g>
<defs>
<clipPath id="clip0_3492_1672">
<rect width="20" height="20" fill="white"/>
</clipPath>
</defs>
</svg>
