<svg width="13" height="13" viewBox="0 0 13 13" fill="none" xmlns="http://www.w3.org/2000/svg">
<path d="M10.1462 3.34055L9.84492 8.21386C9.76792 9.45894 9.72946 10.0815 9.41738 10.5291C9.26304 10.7504 9.06442 10.9372 8.834 11.0775C8.36801 11.3614 7.74428 11.3614 6.49678 11.3614C5.24768 11.3614 4.62311 11.3614 4.15681 11.077C3.92627 10.9364 3.72755 10.7493 3.5733 10.5276C3.26131 10.0793 3.22367 9.45587 3.1484 8.20905L2.85449 3.34055" stroke="#EF4444" stroke-width="1.5" stroke-linecap="round"/>
<path d="M2.12537 3.34055H10.8754M8.47189 3.34055L8.14007 2.65597C7.91962 2.20123 7.80937 1.97386 7.61925 1.83205C7.5771 1.8006 7.53243 1.77262 7.48571 1.74839C7.27518 1.63916 7.0225 1.63916 6.51714 1.63916C5.99909 1.63916 5.74009 1.63916 5.52604 1.75297C5.47861 1.77819 5.43334 1.80731 5.39072 1.84001C5.19839 1.98756 5.09095 2.22325 4.87608 2.69463L4.58165 3.34055" stroke="#EF4444" stroke-width="1.5" stroke-linecap="round"/>
<path d="M5.28503 8.68775V5.77109" stroke="#EF4444" stroke-width="1.5" stroke-linecap="round"/>
<path d="M7.71558 8.68775V5.77109" stroke="#EF4444" stroke-width="1.5" stroke-linecap="round"/>
</svg>
