<svg width="38" height="38" viewBox="0 0 38 38" fill="none" xmlns="http://www.w3.org/2000/svg">
    <circle cx="19" cy="19" r="19" fill="#C6FFFA"/>
    <path d="M25.1812 22.0944C28.4734 17.9198 27.584 13.7792 25.2189 12.3285C22.9842 10.9577 21.0337 11.5101 19.8621 12.39L18.9999 13.0347M25.1812 22.0944C24.3909 23.0963 23.3598 24.1003 22.0505 25.0695C20.762 26.0232 20.1177 26.5 19.0001 26.5C17.8824 26.5 17.2382 26.0232 15.9497 25.0695C9.18485 20.0624 9.84847 14.1274 12.7813 12.3285C15.016 10.9577 16.9664 11.5101 18.1381 12.39L18.9999 13.0347M25.1812 22.0944L20.5768 16.8707C20.3883 16.6568 20.0728 16.6108 19.8311 16.7619L18.0093 17.9005C17.3682 18.3012 16.5362 18.211 15.9958 17.6823C15.2821 16.9839 15.3541 15.8147 16.1482 15.2092L18.9999 13.0347" stroke="#22D5C5" stroke-width="1.25" stroke-linecap="round" stroke-linejoin="round"/>
</svg>
