<svg width="38" height="38" viewBox="0 0 38 38" fill="none" xmlns="http://www.w3.org/2000/svg">
    <rect width="38" height="38" rx="19" fill="#C6FFFA"/>
    <path d="M26.7085 14.6504C26.8657 14.4932 27.1365 14.4772 27.2957 14.6509C28.2284 15.6682 28.7446 16.4215 28.9146 17.2557C29.0124 17.7357 29.0263 18.2242 28.9557 18.6994C28.7649 19.9836 27.7244 21.0241 25.6434 23.1051L23.1051 25.6434C21.0241 27.7244 19.9836 28.7649 18.6994 28.9557C18.2242 29.0263 17.7357 29.0124 17.2557 28.9146C16.4216 28.7446 15.6684 28.2285 14.6513 27.296C14.4773 27.1366 14.4934 26.8655 14.6507 26.7082C15.5269 25.832 15.4853 24.3698 14.5578 23.4422C13.6302 22.5147 12.168 22.4731 11.2918 23.3493C11.1345 23.5066 10.8634 23.5227 10.7039 23.3487C9.77146 22.3316 9.25536 21.5784 9.08539 20.7443C8.98759 20.2643 8.97368 19.7758 9.04429 19.3006C9.23513 18.0164 10.2756 16.9759 12.3566 14.8949L14.8949 12.3566C16.9759 10.2756 18.0164 9.23513 19.3006 9.04428C19.7758 8.97368 20.2643 8.98759 20.7443 9.08539C21.5785 9.25538 22.3318 9.77157 23.3491 10.7043C23.5228 10.8635 23.5068 11.1343 23.3496 11.2915C22.4734 12.1676 22.5151 13.6299 23.4426 14.5574C24.3701 15.4849 25.8324 15.5266 26.7085 14.6504Z" stroke="#22D5C5" stroke-width="1.5" stroke-linejoin="round"/>
    <path d="M26 22L16 12" stroke="#22D5C5" stroke-width="1.5" stroke-linecap="round" stroke-linejoin="round"/>
</svg>
