<svg width="20" height="20" viewBox="0 0 20 20" fill="none" xmlns="http://www.w3.org/2000/svg">
<path d="M10.4165 15.8333V18.3333" stroke="#121D35" stroke-linecap="round" stroke-linejoin="round"/>
<path d="M8.75 18H12.0833" stroke="#121D35" stroke-linecap="round" stroke-linejoin="round"/>
<path d="M11.2502 13.3334C8.0285 13.3334 5.41683 10.7217 5.41683 7.50008C5.41683 4.27842 8.0285 1.66675 11.2502 1.66675C14.4718 1.66675 17.0835 4.27842 17.0835 7.50008C17.0835 10.7217 14.4718 13.3334 11.2502 13.3334Z" stroke="#121D35" stroke-linecap="round"/>
<path d="M7.0835 3.33341C7.62875 3.3655 7.91046 3.63257 8.39475 4.14426C9.26941 5.06846 10.1441 5.14558 10.7272 4.83752C11.6018 4.37541 10.8668 3.62692 11.8934 3.22016C12.5625 2.95504 12.6558 2.23363 12.2834 1.66675" stroke="#121D35" stroke-linejoin="round"/>
<path d="M16.6668 8.33325C15.4168 8.33325 15.195 9.37225 14.1668 9.16659C12.0835 8.74992 11.4932 9.21567 11.4932 10.2092C11.4932 11.2026 11.4932 11.2026 11.0599 11.9477C10.7781 12.4323 10.6796 12.9169 11.2413 13.3333" stroke="#121D35" stroke-linejoin="round"/>
<path d="M5.35693 1.42847C3.81413 2.92843 2.85693 5.01863 2.85693 7.33056C2.85693 11.895 6.58789 15.5951 11.1903 15.5951C13.4615 15.5951 15.5204 14.6941 17.0236 13.2326" stroke="#121D35" stroke-linecap="round"/>
</svg>
