<svg width="20" height="20" viewBox="0 0 20 20" fill="none" xmlns="http://www.w3.org/2000/svg">
<path d="M2.08203 4.99992L6.66537 3.33325L11.2487 4.99992L9.16537 6.24992V7.49992C9.16537 7.49992 8.60978 7.08325 6.66537 7.08325C4.72092 7.08325 4.16537 7.49992 4.16537 7.49992V6.24992L2.08203 4.99992ZM2.08203 4.99992V8.33325" stroke="#636370" stroke-width="1.5" stroke-linecap="round" stroke-linejoin="round"/>
<path d="M9.16797 7.08325V7.82399C9.16797 9.25584 8.04868 10.4166 6.66797 10.4166C5.28726 10.4166 4.16797 9.25584 4.16797 7.82399V7.08325" stroke="#636370" stroke-width="1.5" stroke-linecap="round" stroke-linejoin="round"/>
<path d="M12.7652 9.19117C12.7652 9.19117 13.1692 8.89708 14.5833 8.89708C15.9975 8.89708 16.4015 9.19117 16.4015 9.19117M12.7652 9.19117V8.33333L11.25 7.5L14.5833 6.25L17.9167 7.5L16.4015 8.33333V9.19117M12.7652 9.19117V9.43183C12.7652 10.436 13.5792 11.25 14.5833 11.25C15.5875 11.25 16.4015 10.436 16.4015 9.43183V9.19117" stroke="#636370" stroke-width="1.5" stroke-linecap="round" stroke-linejoin="round"/>
<path d="M3.65551 13.2717C2.86953 13.7104 0.808726 14.6064 2.06389 15.7274C2.67703 16.275 3.35991 16.6667 4.21845 16.6667H9.11747C9.97605 16.6667 10.6589 16.275 11.2721 15.7274C12.5272 14.6064 10.4664 13.7104 9.68038 13.2717C7.83731 12.2428 5.49863 12.2428 3.65551 13.2717Z" stroke="#636370" stroke-width="1.5" stroke-linecap="round" stroke-linejoin="round"/>
<path d="M13.332 16.6666H16.4194C17.0633 16.6666 17.5754 16.3532 18.0353 15.9152C18.9767 15.0183 17.4311 14.3016 16.8416 13.9506C15.7789 13.3177 14.4964 13.1715 13.332 13.5117" stroke="#636370" stroke-width="1.5" stroke-linecap="round" stroke-linejoin="round"/>
</svg>
