<svg width="20" height="20" viewBox="0 0 20 20" fill="none" xmlns="http://www.w3.org/2000/svg">
<path d="M2.0835 4.99992L6.66683 3.33325L11.2502 4.99992L9.16683 6.24992V7.49992C9.16683 7.49992 8.61125 7.08325 6.66683 7.08325C4.72239 7.08325 4.16683 7.49992 4.16683 7.49992V6.24992L2.0835 4.99992ZM2.0835 4.99992V8.33325" stroke="#121D35" stroke-width="2" stroke-linecap="round" stroke-linejoin="round"/>
<path d="M9.1665 7.08325V7.82399C9.1665 9.25584 8.04721 10.4166 6.6665 10.4166C5.2858 10.4166 4.1665 9.25584 4.1665 7.82399V7.08325" stroke="#121D35" stroke-width="2" stroke-linecap="round" stroke-linejoin="round"/>
<path d="M12.7652 9.19117C12.7652 9.19117 13.1692 8.89708 14.5833 8.89708C15.9975 8.89708 16.4015 9.19117 16.4015 9.19117M12.7652 9.19117V8.33333L11.25 7.5L14.5833 6.25L17.9167 7.5L16.4015 8.33333V9.19117M12.7652 9.19117V9.43183C12.7652 10.436 13.5792 11.25 14.5833 11.25C15.5875 11.25 16.4015 10.436 16.4015 9.43183V9.19117" stroke="#121D35" stroke-width="2" stroke-linecap="round" stroke-linejoin="round"/>
<path d="M3.65404 13.2717C2.86806 13.7104 0.807261 14.6064 2.06243 15.7274C2.67556 16.275 3.35844 16.6667 4.21699 16.6667H9.116C9.97459 16.6667 10.6574 16.275 11.2706 15.7274C12.5258 14.6064 10.4649 13.7104 9.67892 13.2717C7.83584 12.2428 5.49716 12.2428 3.65404 13.2717Z" stroke="#121D35" stroke-width="2" stroke-linecap="round" stroke-linejoin="round"/>
<path d="M13.3335 16.6666H16.4208C17.0647 16.6666 17.5769 16.3532 18.0367 15.9152C18.9782 15.0183 17.4326 14.3016 16.8431 13.9506C15.7803 13.3177 14.4978 13.1715 13.3335 13.5117" stroke="#121D35" stroke-width="2" stroke-linecap="round" stroke-linejoin="round"/>
</svg>
