<svg width="23" height="24" viewBox="0 0 23 24" fill="none" xmlns="http://www.w3.org/2000/svg">
<path d="M7.1875 5.23926H15.3333C16.1272 5.23926 16.7708 5.88285 16.7708 6.67676V8.11426" stroke="#636370" stroke-width="1.5" stroke-linecap="round" stroke-linejoin="round"/>
<path d="M14.375 12.906H8.625" stroke="#636370" stroke-width="1.5" stroke-linecap="round" stroke-linejoin="round"/>
<path d="M11.5 16.7393H8.625" stroke="#636370" stroke-width="1.5" stroke-linecap="round" stroke-linejoin="round"/>
<path d="M17.7264 2.41675L6.04493 2.41677C5.56868 2.41677 5.08156 2.48665 4.69659 2.76924C3.47594 3.66526 2.53525 5.66359 4.4349 7.46774C4.96828 7.97431 5.71383 8.15795 6.44671 8.15795H17.5218C18.2822 8.15795 19.6459 8.26679 19.6459 10.5887V17.7321C19.6459 19.8591 17.9308 21.5834 15.8151 21.5834H7.16119C5.04941 21.5834 3.51351 20.0909 3.39219 17.8184L3.36009 5.4512" stroke="#636370" stroke-width="1.5" stroke-linecap="round"/>
</svg>
