<svg width="20" height="20" viewBox="0 0 20 20" fill="none" xmlns="http://www.w3.org/2000/svg">
<path d="M18.3346 10.0001C18.3346 14.6024 14.6036 18.3334 10.0013 18.3334C5.39893 18.3334 1.66797 14.6024 1.66797 10.0001C1.66797 5.39771 5.39893 1.66675 10.0013 1.66675C14.6036 1.66675 18.3346 5.39771 18.3346 10.0001Z" stroke="#636370" stroke-width="1.5"/>
<path d="M12.2578 8.38433C12.1753 7.74878 11.4455 6.72193 10.1333 6.7219C8.60868 6.72188 7.96715 7.5663 7.83697 7.9885C7.63389 8.55325 7.6745 9.71433 9.4616 9.84091C11.6955 9.99925 12.5904 10.2629 12.4766 11.6301C12.3627 12.9972 11.1174 13.2926 10.1333 13.2608C9.14918 13.2292 7.53905 12.7772 7.47656 11.5612M9.97718 5.83179V6.72493M9.97718 13.2527V14.1651" stroke="#636370" stroke-width="1.5" stroke-linecap="round"/>
</svg>
