<svg width="23" height="24" viewBox="0 0 23 24" fill="none" xmlns="http://www.w3.org/2000/svg">
<g clip-path="url(#clip0_2135_11130)">
<path d="M22.8026 16.2851L21.0212 14.5036V8.39283L22.1842 7.97352C22.4512 7.87722 22.6292 7.62402 22.6295 7.34014C22.6297 7.05635 22.452 6.80279 22.1851 6.70617L11.5441 2.85251C11.396 2.79884 11.2335 2.79884 11.0853 2.85251L0.444374 6.70617C0.178507 6.80247 0.00108217 7.05446 4.14973e-06 7.33722C-0.000984037 7.61997 0.174599 7.87326 0.439702 7.9715L4.3668 9.42625V13.8666C4.3668 14.0044 4.40902 14.139 4.48785 14.252C4.5312 14.3141 4.94179 14.8748 5.99304 15.404C7.32112 16.0725 9.06302 16.4115 11.1703 16.4115C13.276 16.4115 15.0267 16.0732 16.3738 15.406C17.4354 14.8801 17.8596 14.3253 17.9046 14.2638C17.9886 14.1485 18.034 14.0095 18.034 13.8667V9.46972L19.6737 8.87856V14.5036L17.8922 16.2851C17.7658 16.4115 17.6948 16.5828 17.6948 16.7615C17.6948 16.9402 17.7658 17.1116 17.8922 17.2379L19.6737 19.0194V20.5141C19.6737 20.8862 19.9753 21.1879 20.3474 21.1879C20.7195 21.1879 21.0212 20.8862 21.0212 20.5141V19.0194L22.8027 17.2379C23.0658 16.9749 23.0658 16.5482 22.8026 16.2851ZM11.3147 4.2026L19.9731 7.33825L11.1735 10.5107L2.63267 7.34683L11.3147 4.2026ZM16.6864 13.5981C14.3831 15.6707 7.53861 15.433 5.71433 13.6048V9.92546L10.9362 11.8599C11.0191 11.873 11.0973 11.9445 11.3988 11.8619L16.6864 9.95564L16.6864 13.5981ZM20.3474 17.7875L19.3213 16.7615L20.3474 15.7355L21.3734 16.7615L20.3474 17.7875Z" fill="#636370"/>
</g>
<defs>
<clipPath id="clip0_2135_11130">
<rect width="23" height="23" fill="white" transform="translate(0 0.5)"/>
</clipPath>
</defs>
</svg>
