<svg width="20" height="20" viewBox="0 0 20 20" fill="none" xmlns="http://www.w3.org/2000/svg">
<path d="M2.91675 15C2.91675 13.8215 2.91675 13.2322 3.28286 12.8661C3.64898 12.5 4.23824 12.5 5.41675 12.5H5.83341C6.61909 12.5 7.01192 12.5 7.25601 12.7441C7.50008 12.9882 7.50008 13.381 7.50008 14.1667V18.3333H2.91675V15Z" stroke="black" stroke-linecap="round" stroke-linejoin="round"/>
<path d="M12.5 15.8334C12.5 15.0477 12.5 14.6549 12.7441 14.4108C12.9882 14.1667 13.381 14.1667 14.1667 14.1667H14.5833C15.7618 14.1667 16.3511 14.1667 16.7172 14.5328C17.0833 14.899 17.0833 15.4882 17.0833 16.6667V18.3334H12.5V15.8334Z" stroke="black" stroke-linecap="round" stroke-linejoin="round"/>
<path d="M1.66675 18.3333H18.3334" stroke="black" stroke-linecap="round" stroke-linejoin="round"/>
<path d="M7.5 13.3333C7.5 12.1548 7.5 11.5655 7.86612 11.1993C8.23223 10.8333 8.8215 10.8333 10 10.8333C11.1785 10.8333 11.7678 10.8333 12.1339 11.1993C12.5 11.5655 12.5 12.1548 12.5 13.3333V18.3333H7.5V13.3333Z" stroke="black" stroke-linecap="round" stroke-linejoin="round"/>
<path d="M10.576 2.14814L11.1626 3.33104C11.2426 3.49571 11.4558 3.65365 11.6358 3.68389L12.6991 3.862C13.379 3.97626 13.539 4.47362 13.049 4.96425L12.2224 5.79766C12.0825 5.9388 12.0058 6.211 12.0492 6.40591L12.2857 7.43758C12.4724 8.25418 12.0425 8.57008 11.3259 8.14329L10.3293 7.54848C10.1493 7.44094 9.85275 7.44094 9.66941 7.54848L8.67283 8.14329C7.95958 8.57008 7.5263 8.25083 7.71294 7.43758L7.94958 6.40591C7.99291 6.211 7.91626 5.9388 7.77627 5.79766L6.9497 4.96425C6.46308 4.47362 6.61973 3.97626 7.29966 3.862L8.36283 3.68389C8.5395 3.65365 8.75283 3.49571 8.83283 3.33104L9.41941 2.14814C9.73941 1.50628 10.2593 1.50628 10.576 2.14814Z" stroke="black" stroke-linecap="round" stroke-linejoin="round"/>
</svg>
