<svg width="38" height="38" viewBox="0 0 38 38" fill="none" xmlns="http://www.w3.org/2000/svg">
<circle cx="19" cy="19" r="19" fill="#FDE6E0"/>
<path d="M23.1666 10.6667V13.1667M14.8333 10.6667V13.1667" stroke="#F67728" stroke-width="1.25" stroke-linecap="round" stroke-linejoin="round"/>
<path d="M19.8333 11.9167H18.1667C15.024 11.9167 13.4526 11.9167 12.4763 12.893C11.5 13.8693 11.5 15.4406 11.5 18.5833V20.6667C11.5 23.8093 11.5 25.3807 12.4763 26.357C13.4526 27.3333 15.024 27.3333 18.1667 27.3333H19.8333C22.976 27.3333 24.5474 27.3333 25.5237 26.357C26.5 25.3807 26.5 23.8093 26.5 20.6667V18.5833C26.5 15.4406 26.5 13.8693 25.5237 12.893C24.5474 11.9167 22.976 11.9167 19.8333 11.9167Z" stroke="#F67728" stroke-width="1.25" stroke-linecap="round" stroke-linejoin="round"/>
<path d="M11.9167 16.0833H26.0834" stroke="#F67728" stroke-width="1.25" stroke-linecap="round" stroke-linejoin="round"/>
<path d="M16.5 21.9167C16.5 21.9167 17.75 22.3333 18.1667 23.5833C18.1667 23.5833 19.9804 20.25 22.3333 19.4167" stroke="#F67728" stroke-width="1.25" stroke-linecap="round" stroke-linejoin="round"/>
</svg>
