<svg width="15" height="16" viewBox="0 0 15 16" fill="none" xmlns="http://www.w3.org/2000/svg">
<path d="M13.75 1.75V14.25" stroke="#121D35" stroke-width="1.2" stroke-linecap="round" stroke-linejoin="round"/>
<path d="M6.25 1.75V14.25" stroke="#121D35" stroke-width="1.2" stroke-linecap="round" stroke-linejoin="round"/>
<path d="M10.3125 5.50145C10.8399 5.50145 11.4487 5.44934 11.7494 5.9702C11.875 6.18774 11.875 6.47981 11.875 7.06394V8.93894C11.875 9.52306 11.875 9.81512 11.7494 10.0327C11.4487 10.5536 10.8399 10.5014 10.3125 10.5014C9.78506 10.5014 9.17631 10.5536 8.87563 10.0327C8.75 9.81512 8.75 9.52306 8.75 8.93894V7.06394C8.75 6.47981 8.75 6.18774 8.87563 5.9702C9.17631 5.44934 9.78506 5.50145 10.3125 5.50145Z" stroke="#121D35" stroke-width="1.2" stroke-linecap="round" stroke-linejoin="round"/>
<path d="M2.8125 3.62645C3.33993 3.62645 3.94868 3.57434 4.2494 4.0952C4.375 4.31274 4.375 4.60481 4.375 5.18895V10.8139C4.375 11.3981 4.375 11.6901 4.2494 11.9077C3.94868 12.4286 3.33993 12.3764 2.8125 12.3764C2.28507 12.3764 1.67632 12.4286 1.3756 11.9077C1.25 11.6901 1.25 11.3981 1.25 10.8139V5.18895C1.25 4.60481 1.25 4.31274 1.3756 4.0952C1.67632 3.57434 2.28507 3.62645 2.8125 3.62645Z" stroke="#121D35" stroke-width="1.2" stroke-linecap="round" stroke-linejoin="round"/>
</svg>
