<svg width="15" height="16" viewBox="0 0 15 16" fill="none" xmlns="http://www.w3.org/2000/svg">
<path d="M12.5 8.625V7.16056C12.5 6.64959 12.5 6.39412 12.4049 6.16441C12.3097 5.9347 12.1291 5.75406 11.7677 5.39277L8.80744 2.43243C8.49562 2.12063 8.33975 1.96472 8.14656 1.87234C8.10638 1.85312 8.06525 1.83608 8.02325 1.82126C7.82131 1.75 7.60088 1.75 7.15988 1.75C5.13176 1.75 4.11769 1.75 3.43083 2.30379C3.29207 2.41568 3.16567 2.54207 3.05379 2.68083C2.5 3.36769 2.5 4.38176 2.5 6.4099V8.625M8.125 2.0625V2.375C8.125 4.14277 8.125 5.02665 8.67419 5.57582C9.22338 6.125 10.1073 6.125 11.875 6.125H12.1875" stroke="#121D35" stroke-width="1.2" stroke-linecap="round" stroke-linejoin="round"/>
<path d="M12.3438 10.5H10.7812C10.4361 10.5 10.1562 10.7798 10.1562 11.125V12.375M10.1562 12.375V14.25M10.1562 12.375H12.0312M2.65625 14.25V12.6875M2.65625 12.6875V10.5H3.75C4.35406 10.5 4.84375 10.9897 4.84375 11.5938C4.84375 12.1978 4.35406 12.6875 3.75 12.6875H2.65625ZM6.40625 10.5H7.34375C8.03412 10.5 8.59375 11.0596 8.59375 11.75V13C8.59375 13.6904 8.03412 14.25 7.34375 14.25H6.40625V10.5Z" stroke="#121D35" stroke-width="1.2" stroke-linecap="round" stroke-linejoin="round"/>
</svg>
