<svg width="15" height="16" viewBox="0 0 15 16" fill="none" xmlns="http://www.w3.org/2000/svg">
<path d="M1.5625 8C1.5625 5.20104 1.5625 3.80156 2.43202 2.93202C3.30156 2.0625 4.70104 2.0625 7.5 2.0625C10.2989 2.0625 11.6984 2.0625 12.568 2.93202C13.4375 3.80156 13.4375 5.20104 13.4375 8C13.4375 10.7989 13.4375 12.1984 12.568 13.068C11.6984 13.9375 10.2989 13.9375 7.5 13.9375C4.70104 13.9375 3.30156 13.9375 2.43202 13.068C1.5625 12.1984 1.5625 10.7989 1.5625 8Z" stroke="#121D35" stroke-width="1.2"/>
<path d="M10.3125 6.125C10.8303 6.125 11.25 5.70527 11.25 5.1875C11.25 4.66973 10.8303 4.25 10.3125 4.25C9.79473 4.25 9.375 4.66973 9.375 5.1875C9.375 5.70527 9.79473 6.125 10.3125 6.125Z" stroke="#121D35" stroke-width="1.2"/>
<path d="M10 14.25C9.61281 12.8593 8.70906 11.6138 7.42281 10.7089C6.03601 9.73305 4.29477 9.21661 2.50981 9.25167C2.29786 9.25117 2.0861 9.25792 1.875 9.27192" stroke="#121D35" stroke-width="1.2" stroke-linejoin="round"/>
<path d="M8.125 11.75C9.18844 10.9208 10.3341 10.4955 11.4914 10.5C12.1476 10.4993 12.8007 10.6385 13.4375 10.9135" stroke="#121D35" stroke-width="1.2" stroke-linejoin="round"/>
</svg>
