<svg width="15" height="16" viewBox="0 0 15 16" fill="none" xmlns="http://www.w3.org/2000/svg">
<path d="M6.875 5.5H8.125" stroke="#121D35" stroke-width="1.2" stroke-linecap="round"/>
<path d="M1.25 7.375C1.25 5.31261 1.25 4.28141 1.89071 3.64071C2.53141 3 3.56261 3 5.625 3H6.25C8.31237 3 9.34356 3 9.98431 3.64071C10.625 4.28141 10.625 5.31261 10.625 7.375V8.625C10.625 10.6874 10.625 11.7186 9.98431 12.3593C9.34356 13 8.31237 13 6.25 13H5.625C3.56261 13 2.53141 13 1.89071 12.3593C1.25 11.7186 1.25 10.6874 1.25 8.625V7.375Z" stroke="#121D35" stroke-width="1.2"/>
<path d="M10.625 6.06616L10.7037 6.00123C12.0261 4.91015 12.6872 4.3646 13.2186 4.62801C13.75 4.89143 13.75 5.76472 13.75 7.51131V8.48869C13.75 10.2353 13.75 11.1086 13.2186 11.372C12.6872 11.6354 12.0261 11.0899 10.7037 9.99875L10.625 9.93381" stroke="#121D35" stroke-width="1.2" stroke-linecap="round"/>
</svg>
