<svg width="15" height="16" viewBox="0 0 15 16" fill="none" xmlns="http://www.w3.org/2000/svg">
<path d="M12.5 8.625V7.16056C12.5 6.64959 12.5 6.39412 12.4049 6.16441C12.3097 5.9347 12.1291 5.75406 11.7677 5.39277L8.80744 2.43243C8.49562 2.12063 8.33975 1.96472 8.14656 1.87234C8.10638 1.85312 8.06525 1.83608 8.02325 1.82126C7.82131 1.75 7.60088 1.75 7.15988 1.75C5.13176 1.75 4.11769 1.75 3.43083 2.30379C3.29207 2.41568 3.16567 2.54207 3.05379 2.68083C2.5 3.36769 2.5 4.38176 2.5 6.4099V8.625M8.125 2.0625V2.375C8.125 4.14277 8.125 5.02665 8.67419 5.57582C9.22338 6.125 10.1073 6.125 11.875 6.125H12.1875" stroke="#121D35" stroke-width="1.2" stroke-linecap="round" stroke-linejoin="round"/>
<path d="M2.5 14.25V12.375M2.5 12.375V10.5H3.75C4.26777 10.5 4.6875 10.9197 4.6875 11.4375C4.6875 11.9553 4.26777 12.375 3.75 12.375H2.5ZM6.25 14.25V12.375M6.25 12.375V10.5H7.5C8.01775 10.5 8.4375 10.9197 8.4375 11.4375C8.4375 11.9553 8.01775 12.375 7.5 12.375H6.25ZM10 10.5H11.25M11.25 10.5H12.5M11.25 10.5V14.25" stroke="#121D35" stroke-width="1.2" stroke-linecap="round" stroke-linejoin="round"/>
</svg>
