<svg width="20" height="20" viewBox="0 0 20 20" fill="none" xmlns="http://www.w3.org/2000/svg">
<path d="M14.1663 1.66675V3.33341M9.99967 1.66675V3.33341M5.83301 1.66675V3.33341" stroke="#121D35" stroke-width="1.5" stroke-linecap="round" stroke-linejoin="round"/>
<path d="M2.91699 8.33333C2.91699 5.58347 2.91699 4.20854 3.77127 3.35427C4.62553 2.5 6.00047 2.5 8.75033 2.5H11.2503C14.0002 2.5 15.3751 2.5 16.2294 3.35427C17.0837 4.20854 17.0837 5.58347 17.0837 8.33333V12.5C17.0837 15.2498 17.0837 16.6247 16.2294 17.4791C15.3751 18.3333 14.0002 18.3333 11.2503 18.3333H8.75033C6.00047 18.3333 4.62553 18.3333 3.77127 17.4791C2.91699 16.6247 2.91699 15.2498 2.91699 12.5V8.33333Z" stroke="#121D35" stroke-width="1.5" stroke-linecap="round" stroke-linejoin="round"/>
<path d="M6.66699 12.4999H10.0003M6.66699 8.33325H13.3337" stroke="#121D35" stroke-width="1.5" stroke-linecap="round"/>
</svg>
