<svg width="30" height="30" viewBox="0 0 30 30" fill="none" xmlns="http://www.w3.org/2000/svg">
<path d="M3.12256 25.0012H23.1225" stroke="#121D35" stroke-width="2" stroke-linecap="round" stroke-linejoin="round"/>
<path d="M25.0596 13.8018C26.5263 13.2518 26.7471 12.5018 26.8408 12.0017C26.9971 11.3767 26.6221 9.783 26.2783 8.56425C26.2099 8.29952 25.6637 6.22976 25.5846 6.00175C25.2783 4.908 24.5283 4.958 23.9971 5.033C23.7783 5.07987 22.2471 5.4955 21.9971 5.6205C21.1533 6.12675 21.2471 7.4705 20.9971 8.3455C20.7158 9.62675 20.0596 9.81425 19.3096 9.93925C16.6846 10.1267 10.8721 10.5955 10.8721 10.5955C5.90333 11.033 3.49708 15.0018 3.14083 17.908C2.96583 19.1268 4.09083 19.5643 4.68458 19.408L11.2158 17.6268C11.7158 17.4393 12.1221 17.5955 12.4033 17.783L15.3096 19.6893C15.9658 20.033 16.5596 20.0643 17.0908 19.9393L19.8096 19.1955C20.3721 19.133 20.4839 18.8653 20.5596 18.658C20.6707 18.3536 20.4322 18.0745 20.1533 17.8143C19.9971 17.5955 19.4971 17.0605 19.3096 16.8543C19.0596 16.533 18.4484 16.0018 18.4971 15.783C18.1221 15.6268 19.4592 15.391 21.6846 14.783C22.9493 14.4374 24.4079 14.0461 25.0596 13.8018Z" stroke="#121D35" stroke-width="2"/>
</svg>
