<svg width="30" height="30" viewBox="0 0 30 30" fill="none" xmlns="http://www.w3.org/2000/svg">
<path d="M12.5 22.5H17.5" stroke="#121D35" stroke-width="2" stroke-linecap="round" stroke-linejoin="round"/>
<path d="M2.93924 16.5169C2.49796 13.6452 2.27733 12.2095 2.82021 10.9367C3.36309 9.6639 4.56754 8.79304 6.97643 7.05132L8.77624 5.75C11.7729 3.58334 13.2711 2.5 15 2.5C16.7289 2.5 18.2271 3.58334 21.2238 5.75L23.0236 7.05132C25.4325 8.79304 26.6369 9.6639 27.1797 10.9367C27.7226 12.2095 27.502 13.6452 27.0607 16.5169L26.6845 18.9655C26.0589 23.0361 25.7461 25.0715 24.2863 26.2858C22.8264 27.5 20.6921 27.5 16.4235 27.5H13.5765C9.30791 27.5 7.17364 27.5 5.71375 26.2858C4.25386 25.0715 3.94109 23.0361 3.31554 18.9655L2.93924 16.5169Z" stroke="#121D35" stroke-width="2" stroke-linejoin="round"/>
</svg>
