<svg width="30" height="30" viewBox="0 0 30 30" fill="none" xmlns="http://www.w3.org/2000/svg">
<path d="M25.0004 18.75C25.0004 21.0798 25.0004 22.2445 24.6198 23.1634C24.1123 24.3885 23.1389 25.3619 21.9138 25.8694C20.9949 26.25 19.8301 26.25 17.5004 26.25H13.7504C9.03641 26.25 6.67936 26.25 5.2149 24.7855C3.75043 23.321 3.75045 20.964 3.75049 16.2499L3.75056 8.74979C3.75059 5.98847 5.98909 3.75 8.7504 3.75" stroke="#121D35" stroke-width="2" stroke-linecap="round" stroke-linejoin="round"/>
<path d="M12.5004 10.625L13.0426 15.5861C13.0943 16.0009 13.3492 16.3624 13.7332 16.5274C14.5907 16.8956 16.1967 17.5 17.5004 17.5C18.8043 17.5 20.4103 16.8956 21.2678 16.5274C21.6518 16.3624 21.9067 16.0009 21.9584 15.5861L22.5004 10.625M25.6254 9.375V14.0865M17.5004 5L8.75049 8.75L17.5004 12.5L26.2504 8.75L17.5004 5Z" stroke="#121D35" stroke-width="2" stroke-linecap="round" stroke-linejoin="round"/>
</svg>
