<svg width="30" height="30" viewBox="0 0 30 30" fill="none" xmlns="http://www.w3.org/2000/svg">
<path d="M19.8334 4.7255C20.9914 3.78985 22.2884 3.73305 23.7055 3.75292C24.4385 3.76319 24.805 3.76834 25.099 3.88235C25.5655 4.06325 25.9368 4.43455 26.1176 4.90102C26.2316 5.19502 26.2368 5.5615 26.2471 6.29447C26.267 7.71158 26.2101 9.00858 25.2745 10.1666C24.4866 11.1417 23.1324 11.6513 22.4808 12.7276C21.9833 13.5494 22.215 14.4004 22.4288 15.2761L24.0285 21.8328C24.3474 23.1394 24.1048 23.9769 23.1911 24.8905C22.705 25.3766 22.3006 25.352 21.9064 24.7238L17.0784 17.0311L14.7726 18.8639C13.9366 19.5285 13.5186 19.8608 13.299 20.3284C12.7845 21.4235 13.1111 23.0684 13.1278 24.2558C13.137 24.912 12.5699 26.2055 11.7674 26.2491C11.272 26.2761 11.1035 25.6835 10.9435 25.3198L9.40293 21.818C9.0345 20.9806 9.0194 20.9655 8.18195 20.5971L4.68019 19.0565C4.31648 18.8965 3.72393 18.728 3.75089 18.2326C3.79456 17.4301 5.08795 16.863 5.7442 16.8723C6.93165 16.8889 8.57653 17.2155 9.67168 16.701C10.1393 16.4814 10.4716 16.0634 11.1361 15.2274L12.9689 12.9216L5.27629 8.09362C4.64806 7.69933 4.6234 7.29497 5.10944 6.80894C6.02313 5.89525 6.86064 5.65268 8.16721 5.97148L14.7239 7.57129C15.5996 7.78498 16.4506 8.01679 17.2724 7.51925C18.3488 6.86764 18.8583 5.51343 19.8334 4.7255Z" stroke="#121D35" stroke-width="2" stroke-linecap="round" stroke-linejoin="round"/>
</svg>
