<svg width="20" height="20" viewBox="0 0 20 20" fill="none" xmlns="http://www.w3.org/2000/svg">
<path fill-rule="evenodd" clip-rule="evenodd" d="M7.93826 0.984615L7.27672 2.69231L4.9998 3.98462L3.18442 3.70769C2.88214 3.66666 2.57448 3.71642 2.30054 3.85065C2.02661 3.98488 1.79876 4.19752 1.64596 4.46154L1.03057 5.53846C0.872881 5.80669 0.800228 6.11643 0.822201 6.4268C0.844175 6.73717 0.959741 7.03359 1.15365 7.27692L2.30749 8.70769V11.2923L1.18442 12.7231C0.99051 12.9664 0.874944 13.2628 0.852971 13.5732C0.830997 13.8836 0.90365 14.1933 1.06134 14.4615L1.67672 15.5385C1.82953 15.8025 2.05738 16.0151 2.33131 16.1493C2.60525 16.2836 2.9129 16.3333 3.21519 16.2923L5.03057 16.0154L7.27672 17.3077L7.93826 19.0154C8.04983 19.3045 8.24612 19.5532 8.50142 19.7289C8.75671 19.9046 9.05912 19.9991 9.36903 20H10.6613C10.9712 19.9991 11.2737 19.9046 11.529 19.7289C11.7843 19.5532 11.9805 19.3045 12.0921 19.0154L12.7536 17.3077L14.9998 16.0154L16.8152 16.2923C17.1175 16.3333 17.4251 16.2836 17.6991 16.1493C17.973 16.0151 18.2008 15.8025 18.3536 15.5385L18.969 14.4615C19.1267 14.1933 19.1994 13.8836 19.1774 13.5732C19.1554 13.2628 19.0399 12.9664 18.846 12.7231L17.6921 11.2923V8.70769L18.8152 7.27692C19.0091 7.03359 19.1247 6.73717 19.1466 6.4268C19.1686 6.11643 19.096 5.80669 18.9383 5.53846L18.3229 4.46154C18.1701 4.19752 17.9422 3.98488 17.6683 3.85065C17.3944 3.71642 17.0867 3.66666 16.7844 3.70769L14.969 3.98462L12.7229 2.69231L12.0613 0.984615C11.9498 0.695483 11.7535 0.446786 11.4982 0.271096C11.2429 0.095406 10.9405 0.000915472 10.6306 0H9.36903C9.05912 0.000915472 8.75671 0.095406 8.50142 0.271096C8.24612 0.446786 8.04983 0.695483 7.93826 0.984615ZM9.99981 13.2143C11.775 13.2143 13.2141 11.7752 13.2141 10C13.2141 8.2248 11.775 6.78572 9.99981 6.78572C8.22461 6.78572 6.78553 8.2248 6.78553 10C6.78553 11.7752 8.22461 13.2143 9.99981 13.2143Z" fill="#6E6F81"/>
</svg>
