<svg width="20" height="20" viewBox="0 0 20 20" fill="none" xmlns="http://www.w3.org/2000/svg">
<path d="M1.66675 1.66675H13.3334C14.9047 1.66675 15.6904 1.66675 16.1786 2.15491C16.6667 2.64306 16.6667 3.42873 16.6667 5.00008V10.0001C16.6667 11.5714 16.6667 12.3571 16.1786 12.8452C15.6904 13.3334 14.9047 13.3334 13.3334 13.3334H7.50008" stroke="black" stroke-width="1.5" stroke-linecap="round" stroke-linejoin="round"/>
<path d="M8.33325 5.41675H13.3333" stroke="black" stroke-width="1.5" stroke-linecap="round" stroke-linejoin="round"/>
<path d="M1.66675 14.1667V10.8334C1.66675 10.0477 1.66675 9.65491 1.91082 9.41083C2.15491 9.16675 2.54774 9.16675 3.33341 9.16675H5.00008M1.66675 14.1667H5.00008M1.66675 14.1667V18.3334M5.00008 9.16675V14.1667M5.00008 9.16675H7.50008H10.0001M5.00008 14.1667V18.3334" stroke="black" stroke-width="1.5" stroke-linecap="round" stroke-linejoin="round"/>
<path d="M5.00008 5.41667C5.00008 6.33714 4.25389 7.08333 3.33341 7.08333C2.41294 7.08333 1.66675 6.33714 1.66675 5.41667C1.66675 4.49619 2.41294 3.75 3.33341 3.75C4.25389 3.75 5.00008 4.49619 5.00008 5.41667Z" stroke="black" stroke-width="1.5"/>
</svg>
