<svg width="38" height="38" viewBox="0 0 38 38" fill="none" xmlns="http://www.w3.org/2000/svg">
    <circle cx="19" cy="19" r="19" fill="#DCFCE7"/>
    <path d="M24.5135 25.6667H24.922C25.8802 25.6667 26.6423 25.2301 27.3267 24.6197C29.0651 23.0688 24.9785 21.5 23.5834 21.5M21.9167 13.224C22.106 13.1864 22.3025 13.1667 22.5041 13.1667C24.0207 13.1667 25.2501 14.2859 25.2501 15.6667C25.2501 17.0474 24.0207 18.1667 22.5041 18.1667C22.3025 18.1667 22.106 18.1469 21.9167 18.1093" stroke="#22C55E" stroke-width="1.25" stroke-linecap="round"/>
    <path d="M12.7344 22.426C11.752 22.9525 9.17595 24.0276 10.7449 25.3728C11.5113 26.03 12.3649 26.5 13.4381 26.5H19.5619C20.6351 26.5 21.4887 26.03 22.2551 25.3728C23.8241 24.0276 21.2481 22.9525 20.2656 22.426C17.9617 21.1913 15.0383 21.1913 12.7344 22.426Z" stroke="#22C55E" stroke-width="1.25"/>
    <path d="M19.8334 15.25C19.8334 17.0909 18.341 18.5833 16.5001 18.5833C14.6591 18.5833 13.1667 17.0909 13.1667 15.25C13.1667 13.409 14.6591 11.9167 16.5001 11.9167C18.341 11.9167 19.8334 13.409 19.8334 15.25Z" stroke="#22C55E" stroke-width="1.25"/>
</svg>
