<svg width="38" height="38" viewBox="0 0 38 38" fill="none" xmlns="http://www.w3.org/2000/svg">
    <circle cx="19" cy="19" r="19" fill="#F2EDFF"/>
    <path d="M11.0833 14L15.6666 12.3333L20.2499 14L18.1666 15.25V16.5C18.1666 16.5 17.611 16.0833 15.6666 16.0833C13.7221 16.0833 13.1666 16.5 13.1666 16.5V15.25L11.0833 14ZM11.0833 14V17.3333" stroke="#5728CA" stroke-width="1.25" stroke-linecap="round" stroke-linejoin="round"/>
    <path d="M18.1667 16.0833V16.8241C18.1667 18.2559 17.0475 19.4167 15.6667 19.4167C14.286 19.4167 13.1667 18.2559 13.1667 16.8241V16.0833" stroke="#5728CA" stroke-width="1.25" stroke-linecap="round" stroke-linejoin="round"/>
    <path d="M21.7652 18.1912C21.7652 18.1912 22.1692 17.8971 23.5833 17.8971C24.9975 17.8971 25.4015 18.1912 25.4015 18.1912M21.7652 18.1912V17.3333L20.25 16.5L23.5833 15.25L26.9167 16.5L25.4015 17.3333V18.1912M21.7652 18.1912V18.4318C21.7652 19.436 22.5792 20.25 23.5833 20.25C24.5875 20.25 25.4015 19.436 25.4015 18.4318V18.1912" stroke="#5728CA" stroke-width="1.25" stroke-linecap="round" stroke-linejoin="round"/>
    <path d="M12.6543 22.2717C11.8683 22.7104 9.80751 23.6064 11.0627 24.7274C11.6758 25.275 12.3587 25.6667 13.2172 25.6667H18.1162C18.9748 25.6667 19.6577 25.275 20.2708 24.7274C21.526 23.6064 19.4652 22.7104 18.6792 22.2717C16.8361 21.2428 14.4974 21.2428 12.6543 22.2717Z" stroke="#5728CA" stroke-width="1.25" stroke-linecap="round" stroke-linejoin="round"/>
    <path d="M22.3333 25.6667H25.4206C26.0645 25.6667 26.5767 25.3533 27.0365 24.9153C27.9779 24.0184 26.4323 23.3017 25.8428 22.9507C24.7801 22.3178 23.4976 22.1716 22.3333 22.5118" stroke="#5728CA" stroke-width="1.25" stroke-linecap="round" stroke-linejoin="round"/>
</svg>
