<svg width="38" height="38" viewBox="0 0 38 38" fill="none" xmlns="http://www.w3.org/2000/svg">
    <rect width="38" height="38" rx="19" fill="#DCFCE7"/>
    <path d="M28.9644 11.5061C28.9644 11.5061 29.1405 9.72142 28.7095 9.29048M28.7095 9.29048C28.276 8.85699 26.4941 9.0371 26.4941 9.0371M28.7095 9.29048L26 12" stroke="#22C55E" stroke-width="1.5" stroke-linecap="round" stroke-linejoin="round"/>
    <path d="M28.9644 26.4938C28.9644 26.4938 29.1405 28.2785 28.7095 28.7095M28.7095 28.7095C28.276 29.143 26.4941 28.9629 26.4941 28.9629M28.7095 28.7095L26 26" stroke="#22C55E" stroke-width="1.5" stroke-linecap="round" stroke-linejoin="round"/>
    <path d="M9.29048 9.29047L12 12M9.29048 9.29047C9.72397 8.85699 11.5059 9.0371 11.5059 9.0371M9.29048 9.29047C8.85953 9.72142 9.03561 11.5061 9.03561 11.5061" stroke="#22C55E" stroke-width="1.5" stroke-linecap="round" stroke-linejoin="round"/>
    <path d="M9.29048 28.7095L12 26M9.29048 28.7095C9.72397 29.143 11.5059 28.9629 11.5059 28.9629M9.29048 28.7095C8.85953 28.2786 9.03561 26.4939 9.03561 26.4939" stroke="#22C55E" stroke-width="1.5" stroke-linecap="round" stroke-linejoin="round"/>
    <path d="M26 19C26 22.866 22.866 26 19 26C15.134 26 12 22.866 12 19C12 15.134 15.134 12 19 12C22.866 12 26 15.134 26 19Z" stroke="#22C55E" stroke-width="1.5"/>
    <path d="M18.914 16.3013C17.8094 16.3013 17 16.9434 17 17.6887C17 18.4339 17.5219 18.8999 19 18.8999C20.6282 18.8999 21 19.6423 21 20.3875C21 21.1328 20.2883 21.7214 18.914 21.7214M18.914 16.3013C19.7848 16.3013 20.2451 16.6061 20.6086 17.0165M18.914 16.3013V15.457M18.914 21.7214C18.0432 21.7214 17.7046 21.5494 17.225 21.1154M18.914 21.7214V22.5088" stroke="#22C55E" stroke-width="1.5" stroke-linecap="round"/>
</svg>
