<svg width="22" height="22" viewBox="0 0 22 22" fill="none" xmlns="http://www.w3.org/2000/svg">
<g clip-path="url(#clip0_3492_1698)">
<path d="M11.8543 9.12942C11.8543 9.12942 11.8531 9.12839 11.8507 9.12642C11.8492 9.12526 11.8473 9.12371 11.845 9.12191C11.7723 9.0648 11.2811 8.70704 10.6183 8.90667C9.93 9.11404 9.75907 10.0558 10.2268 10.4227C10.4954 10.6334 10.8995 10.8065 11.4442 10.9991C12.6632 11.43 12.2125 13.1491 10.9726 13.1573C10.4887 13.1605 10.2625 13.1298 9.8374 12.8517" stroke="#636370" stroke-width="1.2" stroke-miterlimit="10" stroke-linecap="round" stroke-linejoin="round"/>
<path d="M10.9995 7.97998V8.84288" stroke="#636370" stroke-width="1.2" stroke-miterlimit="10" stroke-linecap="round" stroke-linejoin="round"/>
<path d="M10.9995 13.1572V14.0201" stroke="#636370" stroke-width="1.2" stroke-miterlimit="10" stroke-linecap="round" stroke-linejoin="round"/>
<path d="M10.9998 15.7456C13.6208 15.7456 15.7456 13.6208 15.7456 10.9998C15.7456 8.3787 13.6208 6.25391 10.9998 6.25391C8.3787 6.25391 6.25391 8.3787 6.25391 10.9998C6.25391 13.6208 8.3787 15.7456 10.9998 15.7456Z" stroke="#636370" stroke-width="1.2" stroke-miterlimit="10" stroke-linecap="round" stroke-linejoin="round"/>
<path d="M14.8287 8.19537H17.6871V9.92112L21.57 6.46957L17.6871 3.01807V4.74382H12.5098V6.49935" stroke="#636370" stroke-width="1.2" stroke-miterlimit="10" stroke-linecap="round" stroke-linejoin="round"/>
<path d="M7.17097 13.8044H4.31264V12.0786L0.429688 15.5302L4.31264 18.9817V17.2559H9.48995V15.5004" stroke="#636370" stroke-width="1.2" stroke-miterlimit="10" stroke-linecap="round" stroke-linejoin="round"/>
</g>
<defs>
<clipPath id="clip0_3492_1698">
<rect width="22" height="22" fill="white"/>
</clipPath>
</defs>
</svg>
