<svg width="20" height="20" viewBox="0 0 20 20" fill="none" xmlns="http://www.w3.org/2000/svg">
<path d="M2.91699 15C2.91699 13.8215 2.91699 13.2322 3.28311 12.8661C3.64923 12.5 4.23848 12.5 5.41699 12.5H5.83366C6.61933 12.5 7.01217 12.5 7.25625 12.7441C7.50033 12.9882 7.50033 13.381 7.50033 14.1667V18.3333H2.91699V15Z" stroke="#636370" stroke-width="1.5" stroke-linecap="round" stroke-linejoin="round"/>
<path d="M12.5 15.8334C12.5 15.0477 12.5 14.6549 12.7441 14.4108C12.9882 14.1667 13.381 14.1667 14.1667 14.1667H14.5833C15.7618 14.1667 16.3511 14.1667 16.7172 14.5328C17.0833 14.8989 17.0833 15.4882 17.0833 16.6667V18.3334H12.5V15.8334Z" stroke="#636370" stroke-width="1.5" stroke-linecap="round" stroke-linejoin="round"/>
<path d="M1.66699 18.3333H18.3337" stroke="#636370" stroke-width="1.5" stroke-linecap="round" stroke-linejoin="round"/>
<path d="M7.5 13.3333C7.5 12.1548 7.5 11.5656 7.86612 11.1994C8.23223 10.8333 8.8215 10.8333 10 10.8333C11.1785 10.8333 11.7678 10.8333 12.1339 11.1994C12.5 11.5656 12.5 12.1548 12.5 13.3333V18.3333H7.5V13.3333Z" stroke="#636370" stroke-width="1.5" stroke-linecap="round" stroke-linejoin="round"/>
<path d="M10.5762 2.14808L11.1628 3.33098C11.2428 3.49565 11.4561 3.65359 11.6361 3.68383L12.6993 3.86194C13.3792 3.9762 13.5392 4.47356 13.0492 4.96419L12.2227 5.7976C12.0827 5.93874 12.0061 6.21094 12.0494 6.40585L12.286 7.43752C12.4727 8.25412 12.0427 8.57002 11.3262 8.14323L10.3296 7.54842C10.1496 7.44088 9.85299 7.44088 9.66966 7.54842L8.67307 8.14323C7.95982 8.57002 7.52654 8.25076 7.71318 7.43752L7.94982 6.40585C7.99316 6.21094 7.9165 5.93874 7.77652 5.7976L6.94994 4.96419C6.46332 4.47356 6.61997 3.9762 7.2999 3.86194L8.36308 3.68383C8.53974 3.65359 8.75308 3.49565 8.83308 3.33098L9.41966 2.14808C9.73966 1.50622 10.2596 1.50622 10.5762 2.14808Z" stroke="#636370" stroke-width="1.5" stroke-linecap="round" stroke-linejoin="round"/>
</svg>
