<svg width="1920" height="1084" viewBox="0 0 1920 1084" fill="none" xmlns="http://www.w3.org/2000/svg">
<mask id="mask0_5040_610" style="mask-type:alpha" maskUnits="userSpaceOnUse" x="0" y="0" width="1920" height="1084">
<rect width="1920" height="1084" fill="#5525C9"/>
</mask>
<g mask="url(#mask0_5040_610)">
<mask id="mask1_5040_610" style="mask-type:alpha" maskUnits="userSpaceOnUse" x="-251" y="-602" width="2487" height="2321">
<rect width="1905.68" height="1756.85" transform="matrix(0.926087 -0.377309 0.410823 0.911715 -250.787 117.123)" fill="#F3F3F3"/>
<rect x="0.668455" y="0.267203" width="1904.68" height="1755.85" transform="matrix(0.926087 -0.377309 0.410823 0.911715 -250.847 117.399)" stroke="#605DFF" stroke-opacity="0.7"/>
</mask>
<g mask="url(#mask1_5040_610)">
<mask id="mask2_5040_610" style="mask-type:alpha" maskUnits="userSpaceOnUse" x="-343" y="-716" width="2645" height="2724">
<rect width="2747.61" height="1577.11" transform="matrix(0.924926 0.425172 0.0649252 0.985955 -342.109 -715.51)" fill="#F2F2F2"/>
<rect x="0.494926" y="0.705564" width="2746.61" height="1576.11" transform="matrix(0.924926 0.425172 0.0649252 0.985955 -342.117 -715.71)" stroke="#605DFF" stroke-opacity="0.7"/>
</mask>
<g mask="url(#mask2_5040_610)">
<mask id="mask3_5040_610" style="mask-type:luminance" maskUnits="userSpaceOnUse" x="-622" y="-1431" width="3148" height="3705">
<path d="M2033.55 -603.753L-621.402 -1430.32L-129.284 1446.75L2525.67 2273.32L2033.55 -603.753Z" fill="white"/>
<path d="M2033.18 -603.379L2525.13 2272.66L-128.919 1446.38L-620.861 -1429.66L2033.18 -603.379Z" stroke="white"/>
</mask>
<g mask="url(#mask3_5040_610)">
<g opacity="0.35">
<path d="M-1772.17 -1459.12C-458.786 -1104.18 2127.73 2867.25 2692.08 1557.11" stroke="#605DFF" stroke-opacity="0.7" stroke-miterlimit="10"/>
<path d="M-1755.96 -1400.09C-381.997 -987.902 2079.34 2736.67 2709.54 1540.36" stroke="#605DFF" stroke-opacity="0.7" stroke-miterlimit="10"/>
<path d="M-1739.74 -1341.06C-305.201 -871.619 2030.96 2606.09 2727.02 1523.62" stroke="#605DFF" stroke-opacity="0.7" stroke-miterlimit="10"/>
<path d="M-1723.52 -1282.04C-228.41 -755.35 1982.58 2475.5 2744.48 1506.87" stroke="#605DFF" stroke-opacity="0.7" stroke-miterlimit="10"/>
<path d="M-1707.3 -1223.02C-151.618 -639.077 1934.19 2344.91 2761.95 1490.12" stroke="#605DFF" stroke-opacity="0.7" stroke-miterlimit="10"/>
<path d="M-1691.09 -1164C-74.8277 -522.8 1885.8 2214.32 2779.41 1473.37" stroke="#605DFF" stroke-opacity="0.7" stroke-miterlimit="10"/>
<path d="M-1674.87 -1104.97C1.96054 -406.526 1837.41 2083.74 2796.88 1456.63" stroke="#605DFF" stroke-opacity="0.7" stroke-miterlimit="10"/>
<path d="M-1658.65 -1045.95C78.7546 -290.25 1789.03 1953.16 2814.34 1439.88" stroke="#605DFF" stroke-opacity="0.7" stroke-miterlimit="10"/>
<path d="M-1642.43 -986.922C155.547 -173.974 1740.64 1822.57 2831.81 1423.14" stroke="#605DFF" stroke-opacity="0.7" stroke-miterlimit="10"/>
<path d="M-1626.22 -927.897C232.336 -57.7002 1692.26 1691.98 2849.27 1406.39" stroke="#605DFF" stroke-opacity="0.7" stroke-miterlimit="10"/>
<path d="M-1610 -868.871C309.129 58.5769 1643.87 1561.4 2866.74 1389.64" stroke="#605DFF" stroke-opacity="0.7" stroke-miterlimit="10"/>
<path d="M-1593.78 -809.851C385.922 174.85 1595.48 1430.81 2884.2 1372.89" stroke="#605DFF" stroke-opacity="0.7" stroke-miterlimit="10"/>
<path d="M-1577.56 -750.825C462.712 291.127 1547.1 1300.23 2901.67 1356.15" stroke="#605DFF" stroke-opacity="0.7" stroke-miterlimit="10"/>
<path d="M-1561.34 -691.798C539.506 407.403 1498.72 1169.65 2919.14 1339.4" stroke="#605DFF" stroke-opacity="0.7" stroke-miterlimit="10"/>
<path d="M-1545.13 -632.776C616.292 523.676 1450.33 1039.06 2936.6 1322.65" stroke="#605DFF" stroke-opacity="0.7" stroke-miterlimit="10"/>
<path d="M-1528.91 -573.752C693.086 639.952 1401.94 908.471 2954.07 1305.91" stroke="#605DFF" stroke-opacity="0.7" stroke-miterlimit="10"/>
<path d="M-1512.69 -514.725C769.88 756.229 1353.56 777.888 2971.53 1289.16" stroke="#605DFF" stroke-opacity="0.7" stroke-miterlimit="10"/>
</g>
</g>
<mask id="mask4_5040_610" style="mask-type:luminance" maskUnits="userSpaceOnUse" x="-622" y="-1431" width="3148" height="3705">
<path d="M2033.55 -603.753L-621.402 -1430.32L-129.284 1446.75L2525.67 2273.32L2033.55 -603.753Z" fill="white"/>
<path d="M2033.18 -603.379L2525.13 2272.66L-128.919 1446.38L-620.861 -1429.66L2033.18 -603.379Z" stroke="white"/>
</mask>
<g mask="url(#mask4_5040_610)">
<g opacity="0.58">
<path opacity="0.19" d="M-760.334 -89.6896C133.971 -321.545 2797.14 2187.51 2778.27 762.343" stroke="#605DFF" stroke-opacity="0.7" stroke-miterlimit="10"/>
<path opacity="0.2121" d="M-748.046 -67.7307C170.971 -287.184 2766.39 2141.42 2781.08 751.741" stroke="#605DFF" stroke-opacity="0.7" stroke-miterlimit="10"/>
<path opacity="0.2341" d="M-735.765 -45.7783C207.964 -252.829 2735.65 2095.33 2783.89 741.131" stroke="#605DFF" stroke-opacity="0.7" stroke-miterlimit="10"/>
<path opacity="0.2562" d="M-723.48 -23.8234C244.961 -218.472 2704.9 2049.23 2786.7 730.526" stroke="#605DFF" stroke-opacity="0.7" stroke-miterlimit="10"/>
<path opacity="0.2782" d="M-711.195 -1.86724C281.959 -184.109 2674.15 2003.13 2789.51 719.918" stroke="#605DFF" stroke-opacity="0.7" stroke-miterlimit="10"/>
<path opacity="0.3003" d="M-698.914 20.0887C318.952 -149.751 2643.41 1957.04 2792.33 709.315" stroke="#605DFF" stroke-opacity="0.7" stroke-miterlimit="10"/>
<path opacity="0.3224" d="M-686.627 42.0418C355.951 -115.395 2612.66 1910.94 2795.14 698.708" stroke="#605DFF" stroke-opacity="0.7" stroke-miterlimit="10"/>
<path opacity="0.3444" d="M-674.344 64C392.946 -81.0348 2581.92 1864.85 2797.95 688.103" stroke="#605DFF" stroke-opacity="0.7" stroke-miterlimit="10"/>
<path opacity="0.3665" d="M-662.062 85.9557C429.944 -46.6755 2551.17 1818.75 2800.76 677.5" stroke="#605DFF" stroke-opacity="0.7" stroke-miterlimit="10"/>
<path opacity="0.3885" d="M-649.774 107.916C466.939 -12.318 2520.42 1772.66 2803.57 666.891" stroke="#605DFF" stroke-opacity="0.7" stroke-miterlimit="10"/>
<path opacity="0.4106" d="M-637.494 129.869C503.932 22.0375 2489.68 1726.56 2806.39 656.286" stroke="#605DFF" stroke-opacity="0.7" stroke-miterlimit="10"/>
<path opacity="0.4326" d="M-625.206 151.827C540.932 56.3982 2458.93 1680.47 2809.2 645.679" stroke="#605DFF" stroke-opacity="0.7" stroke-miterlimit="10"/>
<path opacity="0.4547" d="M-612.921 173.783C577.93 90.7605 2428.19 1634.38 2812.02 635.077" stroke="#605DFF" stroke-opacity="0.7" stroke-miterlimit="10"/>
<path opacity="0.4768" d="M-600.639 195.737C614.924 125.117 2397.44 1588.28 2814.82 624.467" stroke="#605DFF" stroke-opacity="0.7" stroke-miterlimit="10"/>
<path opacity="0.4988" d="M-588.355 217.691C651.919 159.474 2366.69 1542.18 2817.63 613.861" stroke="#605DFF" stroke-opacity="0.7" stroke-miterlimit="10"/>
<path opacity="0.5209" d="M-576.072 239.649C688.918 193.835 2335.95 1496.09 2820.45 603.256" stroke="#605DFF" stroke-opacity="0.7" stroke-miterlimit="10"/>
<path opacity="0.5429" d="M-563.788 261.603C725.911 228.19 2305.2 1449.99 2823.26 592.651" stroke="#605DFF" stroke-opacity="0.7" stroke-miterlimit="10"/>
<path opacity="0.565" d="M-551.503 283.561C762.912 262.552 2274.46 1403.9 2826.07 582.045" stroke="#605DFF" stroke-opacity="0.7" stroke-miterlimit="10"/>
<path opacity="0.5871" d="M-539.221 305.515C799.905 296.909 2243.71 1357.81 2828.88 571.44" stroke="#605DFF" stroke-opacity="0.7" stroke-miterlimit="10"/>
<path opacity="0.6091" d="M-526.932 327.476C836.903 331.267 2212.97 1311.71 2831.7 560.836" stroke="#605DFF" stroke-opacity="0.7" stroke-miterlimit="10"/>
<path opacity="0.6312" d="M-514.652 349.43C873.899 365.627 2182.22 1265.62 2834.51 550.227" stroke="#605DFF" stroke-opacity="0.7" stroke-miterlimit="10"/>
<path opacity="0.6532" d="M-502.367 371.385C910.896 399.986 2151.47 1219.52 2837.32 539.623" stroke="#605DFF" stroke-opacity="0.7" stroke-miterlimit="10"/>
<path opacity="0.6753" d="M-490.084 393.342C947.891 434.345 2120.73 1173.43 2840.13 529.016" stroke="#605DFF" stroke-opacity="0.7" stroke-miterlimit="10"/>
<path opacity="0.6974" d="M-477.798 415.297C984.889 468.702 2089.98 1127.33 2842.95 518.411" stroke="#605DFF" stroke-opacity="0.7" stroke-miterlimit="10"/>
<path opacity="0.7194" d="M-465.512 437.252C1021.89 503.06 2059.24 1081.24 2845.76 507.803" stroke="#605DFF" stroke-opacity="0.7" stroke-miterlimit="10"/>
<path opacity="0.7415" d="M-453.231 459.209C1058.88 537.419 2028.49 1035.14 2848.57 497.2" stroke="#605DFF" stroke-opacity="0.7" stroke-miterlimit="10"/>
<path opacity="0.7635" d="M-440.947 481.164C1095.88 571.776 1997.74 989.044 2851.38 486.591" stroke="#605DFF" stroke-opacity="0.7" stroke-miterlimit="10"/>
<path opacity="0.7856" d="M-428.661 503.12C1132.87 606.135 1967 942.952 2854.2 475.988" stroke="#605DFF" stroke-opacity="0.7" stroke-miterlimit="10"/>
<path opacity="0.8076" d="M-416.38 525.074C1169.87 640.492 1936.25 896.856 2857.01 465.379" stroke="#605DFF" stroke-opacity="0.7" stroke-miterlimit="10"/>
<path opacity="0.8297" d="M-404.098 547.031C1206.86 674.851 1905.5 850.76 2859.82 454.772" stroke="#605DFF" stroke-opacity="0.7" stroke-miterlimit="10"/>
<path opacity="0.8518" d="M-391.81 568.989C1243.86 709.211 1874.76 804.667 2862.63 444.17" stroke="#605DFF" stroke-opacity="0.7" stroke-miterlimit="10"/>
<path opacity="0.8738" d="M-379.528 590.945C1280.86 743.57 1844.01 758.572 2865.44 433.563" stroke="#605DFF" stroke-opacity="0.7" stroke-miterlimit="10"/>
<path opacity="0.8959" d="M-367.241 612.9C1317.85 777.927 1813.27 712.478 2868.26 422.958" stroke="#605DFF" stroke-opacity="0.7" stroke-miterlimit="10"/>
<path opacity="0.9179" d="M-354.958 634.857C1354.85 812.287 1782.52 666.385 2871.07 412.352" stroke="#605DFF" stroke-opacity="0.7" stroke-miterlimit="10"/>
<path opacity="0.94" d="M-342.677 656.811C1391.84 846.643 1751.77 620.286 2873.88 401.746" stroke="#605DFF" stroke-opacity="0.7" stroke-miterlimit="10"/>
</g>
</g>
</g>
</g>
</g>
</svg>
