<svg width="1006" height="1016" viewBox="0 0 1006 1016" fill="none" xmlns="http://www.w3.org/2000/svg">
<g clip-path="url(#clip0_4241_2450)">
<mask id="mask0_4241_2450" style="mask-type:alpha" maskUnits="userSpaceOnUse" x="-587" y="-325" width="2129" height="2013">
<rect x="65.8927" y="-325" width="1920" height="1020" transform="rotate(39.7986 65.8927 -325)" fill="#F3F3F3"/>
<rect x="65.9568" y="-324.296" width="1919" height="1019" transform="rotate(39.7986 65.9568 -324.296)" stroke="white" stroke-opacity="0.6"/>
</mask>
<g mask="url(#mask0_4241_2450)">
<mask id="mask1_4241_2450" style="mask-type:alpha" maskUnits="userSpaceOnUse" x="-407" y="-518" width="1637" height="2405">
<rect x="565.923" y="-517.549" width="2199.06" height="1020" transform="rotate(72.4238 565.923 -517.549)" fill="#F2F2F2"/>
<rect x="565.597" y="-516.921" width="2198.06" height="1019" transform="rotate(72.4238 565.597 -516.921)" stroke="white" stroke-opacity="0.6"/>
</mask>
<g mask="url(#mask1_4241_2450)">
<mask id="mask2_4241_2450" style="mask-type:luminance" maskUnits="userSpaceOnUse" x="-747" y="-835" width="2584" height="2931">
<path d="M1836.24 1296.85L881.507 -834.884L-746.376 -35.9329L208.352 2095.8L1836.24 1296.85Z" fill="white"/>
<path d="M1835.58 1296.62L208.596 2095.13L-745.723 -35.6968L881.263 -834.208L1835.58 1296.62Z" stroke="white"/>
</mask>
<g mask="url(#mask2_4241_2450)">
<g opacity="0.35">
<path d="M249.374 -1710.03C757.426 -663.468 -410.38 1882.71 777.093 2115.56" stroke="white" stroke-opacity="0.6" stroke-miterlimit="10"/>
<path d="M219.441 -1689.01C723.836 -588.12 -351.236 1826.73 798.073 2126.29" stroke="white" stroke-opacity="0.6" stroke-miterlimit="10"/>
<path d="M189.508 -1667.98C690.245 -512.763 -292.09 1770.76 819.054 2137.04" stroke="white" stroke-opacity="0.6" stroke-miterlimit="10"/>
<path d="M159.576 -1646.96C656.659 -437.413 -232.944 1714.78 840.035 2147.77" stroke="white" stroke-opacity="0.6" stroke-miterlimit="10"/>
<path d="M129.646 -1625.93C623.071 -362.06 -173.797 1658.8 861.015 2158.51" stroke="white" stroke-opacity="0.6" stroke-miterlimit="10"/>
<path d="M99.7134 -1604.91C589.481 -286.709 -114.65 1602.82 881.995 2169.24" stroke="white" stroke-opacity="0.6" stroke-miterlimit="10"/>
<path d="M69.7788 -1583.89C555.891 -211.361 -55.5063 1546.85 902.973 2179.97" stroke="white" stroke-opacity="0.6" stroke-miterlimit="10"/>
<path d="M39.8477 -1562.86C522.302 -136.006 3.63767 1490.87 923.955 2190.71" stroke="white" stroke-opacity="0.6" stroke-miterlimit="10"/>
<path d="M9.91443 -1541.84C488.713 -60.6548 62.7831 1434.89 944.932 2201.44" stroke="white" stroke-opacity="0.6" stroke-miterlimit="10"/>
<path d="M-20.0199 -1520.81C455.123 14.6966 121.927 1378.92 965.913 2212.18" stroke="white" stroke-opacity="0.6" stroke-miterlimit="10"/>
<path d="M-49.9503 -1499.79C421.535 90.0474 181.076 1322.94 986.893 2222.91" stroke="white" stroke-opacity="0.6" stroke-miterlimit="10"/>
<path d="M-79.8826 -1478.77C387.947 165.401 240.221 1266.96 1007.87 2233.64" stroke="white" stroke-opacity="0.6" stroke-miterlimit="10"/>
<path d="M-109.815 -1457.75C354.357 240.752 299.365 1210.99 1028.85 2244.38" stroke="white" stroke-opacity="0.6" stroke-miterlimit="10"/>
<path d="M-139.748 -1436.72C320.769 316.105 358.511 1155.01 1049.83 2255.12" stroke="white" stroke-opacity="0.6" stroke-miterlimit="10"/>
<path d="M-169.681 -1415.7C287.178 391.452 417.656 1099.03 1070.81 2265.85" stroke="white" stroke-opacity="0.6" stroke-miterlimit="10"/>
<path d="M-199.612 -1394.67C253.589 466.807 476.803 1043.06 1091.79 2276.59" stroke="white" stroke-opacity="0.6" stroke-miterlimit="10"/>
<path d="M-229.547 -1373.65C220.001 542.159 535.947 987.081 1112.77 2287.32" stroke="white" stroke-opacity="0.6" stroke-miterlimit="10"/>
</g>
</g>
<mask id="mask3_4241_2450" style="mask-type:luminance" maskUnits="userSpaceOnUse" x="-747" y="-835" width="2584" height="2931">
<path d="M1836.24 1296.85L881.507 -834.884L-746.376 -35.9329L208.352 2095.8L1836.24 1296.85Z" fill="white"/>
<path d="M1835.58 1296.62L208.596 2095.13L-745.723 -35.6968L881.263 -834.208L1835.58 1296.62Z" stroke="white"/>
</mask>
<g mask="url(#mask3_4241_2450)">
<g opacity="0.58">
<path opacity="0.19" d="M-85.4246 -741.272C574.286 -98.8588 418.831 2288.53 1352.48 2062.96" stroke="white" stroke-opacity="0.6" stroke-miterlimit="10"/>
<path opacity="0.2121" d="M-93.0198 -728.72C572.457 -65.7668 431.976 2258.42 1361.1 2063.51" stroke="white" stroke-opacity="0.6" stroke-miterlimit="10"/>
<path opacity="0.2341" d="M-100.617 -716.169C570.626 -32.6753 445.119 2228.32 1369.72 2064.07" stroke="white" stroke-opacity="0.6" stroke-miterlimit="10"/>
<path opacity="0.2562" d="M-108.213 -703.617C568.796 0.416771 458.263 2198.22 1378.34 2064.63" stroke="white" stroke-opacity="0.6" stroke-miterlimit="10"/>
<path opacity="0.2782" d="M-115.809 -691.066C566.964 33.5087 471.408 2168.12 1386.96 2065.18" stroke="white" stroke-opacity="0.6" stroke-miterlimit="10"/>
<path opacity="0.3003" d="M-123.406 -678.518C565.134 66.5968 484.55 2138.02 1395.58 2065.74" stroke="white" stroke-opacity="0.6" stroke-miterlimit="10"/>
<path opacity="0.3224" d="M-131.002 -665.964C563.305 99.691 497.695 2107.92 1404.19 2066.29" stroke="white" stroke-opacity="0.6" stroke-miterlimit="10"/>
<path opacity="0.3444" d="M-138.599 -653.413C561.474 132.782 510.84 2077.82 1412.81 2066.85" stroke="white" stroke-opacity="0.6" stroke-miterlimit="10"/>
<path opacity="0.3665" d="M-146.197 -640.865C559.644 165.873 523.983 2047.71 1421.43 2067.41" stroke="white" stroke-opacity="0.6" stroke-miterlimit="10"/>
<path opacity="0.3885" d="M-153.794 -628.309C557.814 198.966 537.126 2017.61 1430.05 2067.96" stroke="white" stroke-opacity="0.6" stroke-miterlimit="10"/>
<path opacity="0.4106" d="M-161.391 -615.761C555.984 232.054 550.271 1987.51 1438.67 2068.52" stroke="white" stroke-opacity="0.6" stroke-miterlimit="10"/>
<path opacity="0.4326" d="M-168.987 -603.208C554.154 265.147 563.415 1957.41 1447.29 2069.07" stroke="white" stroke-opacity="0.6" stroke-miterlimit="10"/>
<path opacity="0.4547" d="M-176.583 -590.654C552.322 298.242 576.559 1927.31 1455.91 2069.63" stroke="white" stroke-opacity="0.6" stroke-miterlimit="10"/>
<path opacity="0.4768" d="M-184.18 -578.105C550.492 331.331 589.702 1897.21 1464.53 2070.19" stroke="white" stroke-opacity="0.6" stroke-miterlimit="10"/>
<path opacity="0.4988" d="M-191.776 -565.555C548.662 364.421 602.847 1867.11 1473.14 2070.74" stroke="white" stroke-opacity="0.6" stroke-miterlimit="10"/>
<path opacity="0.5209" d="M-199.374 -553.003C546.832 397.515 615.991 1837 1481.76 2071.3" stroke="white" stroke-opacity="0.6" stroke-miterlimit="10"/>
<path opacity="0.5429" d="M-206.97 -540.452C545.001 430.605 629.135 1806.9 1490.38 2071.86" stroke="white" stroke-opacity="0.6" stroke-miterlimit="10"/>
<path opacity="0.565" d="M-214.567 -527.9C543.172 463.699 642.278 1776.8 1499 2072.41" stroke="white" stroke-opacity="0.6" stroke-miterlimit="10"/>
<path opacity="0.5871" d="M-222.163 -515.35C541.342 496.789 655.422 1746.7 1507.62 2072.97" stroke="white" stroke-opacity="0.6" stroke-miterlimit="10"/>
<path opacity="0.6091" d="M-229.761 -502.796C539.512 529.88 668.565 1716.6 1516.24 2073.52" stroke="white" stroke-opacity="0.6" stroke-miterlimit="10"/>
<path opacity="0.6312" d="M-237.358 -490.248C537.68 562.971 681.71 1686.5 1524.86 2074.08" stroke="white" stroke-opacity="0.6" stroke-miterlimit="10"/>
<path opacity="0.6532" d="M-244.955 -477.696C535.85 596.063 694.854 1656.39 1533.48 2074.63" stroke="white" stroke-opacity="0.6" stroke-miterlimit="10"/>
<path opacity="0.6753" d="M-252.552 -465.145C534.02 629.155 707.996 1626.3 1542.1 2075.19" stroke="white" stroke-opacity="0.6" stroke-miterlimit="10"/>
<path opacity="0.6974" d="M-260.147 -452.593C532.19 662.247 721.141 1596.19 1550.71 2075.74" stroke="white" stroke-opacity="0.6" stroke-miterlimit="10"/>
<path opacity="0.7194" d="M-267.743 -440.04C530.361 695.34 734.286 1566.09 1559.34 2076.3" stroke="white" stroke-opacity="0.6" stroke-miterlimit="10"/>
<path opacity="0.7415" d="M-275.34 -427.49C528.53 728.43 747.43 1535.99 1567.95 2076.86" stroke="white" stroke-opacity="0.6" stroke-miterlimit="10"/>
<path opacity="0.7635" d="M-282.937 -414.939C526.7 761.521 760.574 1505.89 1576.57 2077.41" stroke="white" stroke-opacity="0.6" stroke-miterlimit="10"/>
<path opacity="0.7856" d="M-290.533 -402.387C524.87 794.613 773.716 1475.79 1585.19 2077.97" stroke="white" stroke-opacity="0.6" stroke-miterlimit="10"/>
<path opacity="0.8076" d="M-298.129 -389.838C523.04 827.703 786.862 1445.69 1593.81 2078.52" stroke="white" stroke-opacity="0.6" stroke-miterlimit="10"/>
<path opacity="0.8297" d="M-305.729 -377.287C521.207 860.794 800.003 1415.58 1602.43 2079.08" stroke="white" stroke-opacity="0.6" stroke-miterlimit="10"/>
<path opacity="0.8518" d="M-313.325 -364.735C519.378 893.886 813.149 1385.48 1611.05 2079.64" stroke="white" stroke-opacity="0.6" stroke-miterlimit="10"/>
<path opacity="0.8738" d="M-320.922 -352.184C517.547 926.977 826.292 1355.38 1619.67 2080.19" stroke="white" stroke-opacity="0.6" stroke-miterlimit="10"/>
<path opacity="0.8959" d="M-328.517 -339.63C515.718 960.071 839.435 1325.28 1628.28 2080.75" stroke="white" stroke-opacity="0.6" stroke-miterlimit="10"/>
<path opacity="0.9179" d="M-336.115 -327.081C513.887 993.16 852.58 1295.18 1636.9 2081.3" stroke="white" stroke-opacity="0.6" stroke-miterlimit="10"/>
<path opacity="0.94" d="M-343.712 -314.531C512.057 1026.25 865.723 1265.08 1645.52 2081.86" stroke="white" stroke-opacity="0.6" stroke-miterlimit="10"/>
</g>
</g>
</g>
</g>
</g>
<defs>
<clipPath id="clip0_4241_2450">
<rect width="1006" height="1016" fill="white"/>
</clipPath>
</defs>
</svg>
