<svg width="45" height="28" viewBox="0 0 45 28" fill="none" xmlns="http://www.w3.org/2000/svg">
<mask id="mask0_2225_1037" style="mask-type:luminance" maskUnits="userSpaceOnUse" x="0" y="0" width="45" height="28">
<path d="M11.205 21.0846C12.0096 18.739 14.7096 16.3614 16.6857 15.2981C14.9937 16.7119 12.5757 19.1103 11.8958 21.217C11.3111 23.0295 11.696 24.7532 13.1375 26.1294C11.1938 24.744 10.5679 22.9402 11.205 21.0846ZM20.4562 13.7068C18.4545 15.3047 15.2382 18.1069 13.8625 21.0841C13.0396 22.8656 12.8822 24.6193 14.031 26.3064C14.4603 26.8061 14.9847 27.2307 15.5877 27.5508C13.8612 25.3578 14.04 23.5225 15.1165 21.221C17.3574 21.8729 19.6972 22.1823 22.0563 22.126C26.6095 22.2341 31.0918 20.9816 34.9298 18.5289V12.3757L40.1126 10.4527V21.2286C39.5607 21.427 39.166 21.9556 39.166 22.576C39.166 23.3668 39.8072 24.0075 40.5976 24.0075C41.3884 24.0075 42.0296 23.3668 42.0296 22.576C42.0296 21.9556 41.6349 21.427 41.083 21.2286V10.2462H40.6686L44.1119 8.96838L22.0563 0.44874L0 8.96838L9.18214 12.3757V18.5289L9.18244 18.5284C9.03062 18.7039 8.88965 18.8815 8.76095 19.0621C8.34159 19.6505 8.03768 20.2562 7.88773 20.8746C7.83984 21.1749 7.82691 21.4681 7.84882 21.7537C7.95637 23.1522 8.90156 24.3758 10.6842 25.4238C10.9889 25.6029 11.3179 25.7768 11.6712 25.9458C10.7133 25.1666 10.0862 24.3118 9.78985 23.3815C9.64817 22.9366 9.58207 22.475 9.59161 21.9956C9.60018 21.5548 9.67298 21.0983 9.80974 20.628L9.81572 20.6077L9.83525 20.5423L9.83591 20.5433C9.91068 20.2993 10.0037 20.0579 10.113 19.8184C10.5674 18.8221 11.3424 17.8903 12.2948 17.031C14.3798 15.15 17.3155 13.6175 19.601 12.5299L19.4641 12.4437L18.213 11.6539L18.6838 11.3901C19.2038 11.1045 19.2597 10.9939 19.8248 11.2339C20.1063 11.3521 20.6813 11.6138 20.9631 11.732L23.9641 9.53906L19.5344 6.76123C20.6454 6.08403 20.9423 5.97344 21.852 6.31129L26.1814 7.93303L28.3424 6.7374C28.8035 6.48224 29.3721 6.23469 29.8003 6.72167C30.0823 7.30554 29.6334 7.73317 29.2189 8.05833L27.2766 9.58421L27.0854 14.2034C27.0432 15.1728 26.8256 15.4036 25.7695 16.1635L24.934 11.0015L21.7462 12.9129C21.7453 13.2183 21.7627 13.8499 21.7621 14.1552C21.7634 14.7695 21.6395 14.7777 21.1741 15.1454L20.7482 15.4767L20.4908 13.9168L20.4562 13.7068Z" fill="white"/>
</mask>
<g mask="url(#mask0_2225_1037)">
<path fill-rule="evenodd" clip-rule="evenodd" d="M-3.37934 19.119L-3.36168 19.0799L36.892 37.3843L36.8742 37.4229L-3.37934 19.119Z" fill="white"/>
<path fill-rule="evenodd" clip-rule="evenodd" d="M-3.3877 19.1372L-3.30968 18.9657L36.9437 37.2697L36.8656 37.4416L-3.3877 19.1372Z" fill="white"/>
<path fill-rule="evenodd" clip-rule="evenodd" d="M-3.33558 19.0232L-3.25751 18.8512L36.9961 37.1556L36.9179 37.3271L-3.33558 19.0232Z" fill="white"/>
<path fill-rule="evenodd" clip-rule="evenodd" d="M-3.28372 18.9087L-3.2057 18.7373L37.0476 37.0412L36.97 37.2127L-3.28372 18.9087Z" fill="white"/>
<path fill-rule="evenodd" clip-rule="evenodd" d="M-3.23164 18.7943L-3.15357 18.6224L37.0999 36.9263L37.0218 37.0983L-3.23164 18.7943Z" fill="white"/>
<path fill-rule="evenodd" clip-rule="evenodd" d="M-3.17956 18.6797L-3.10149 18.5078L37.1522 36.8122L37.0741 36.9836L-3.17956 18.6797Z" fill="white"/>
<path fill-rule="evenodd" clip-rule="evenodd" d="M-3.12769 18.5652L-3.04962 18.3938L37.2038 36.6977L37.1257 36.8697L-3.12769 18.5652Z" fill="white"/>
<path fill-rule="evenodd" clip-rule="evenodd" d="M-3.07561 18.4511L-2.99754 18.2792L37.256 36.5831L37.1779 36.755L-3.07561 18.4511Z" fill="white"/>
<path fill-rule="evenodd" clip-rule="evenodd" d="M-3.02332 18.3363L-2.94525 18.1643L37.308 36.4687L37.2299 36.6402L-3.02332 18.3363Z" fill="white"/>
<path fill-rule="evenodd" clip-rule="evenodd" d="M-2.97145 18.2218L-2.89338 18.0504L37.3602 36.3543L37.282 36.5262L-2.97145 18.2218Z" fill="white"/>
<path fill-rule="evenodd" clip-rule="evenodd" d="M-2.91937 18.1077L-2.8413 17.9357L37.4124 36.2402L37.3343 36.4116L-2.91937 18.1077Z" fill="white"/>
<path fill-rule="evenodd" clip-rule="evenodd" d="M-2.86708 17.993L-2.78901 17.8215L37.4644 36.1255L37.3863 36.2974L-2.86708 17.993Z" fill="white"/>
<path fill-rule="evenodd" clip-rule="evenodd" d="M-2.81521 17.8789L-2.73714 17.7069L37.5165 36.0108L37.4384 36.1828L-2.81521 17.8789Z" fill="white"/>
<path fill-rule="evenodd" clip-rule="evenodd" d="M-2.76313 17.7641L-2.68511 17.5921L37.5683 35.8965L37.4902 36.068L-2.76313 17.7641Z" fill="white"/>
<path fill-rule="evenodd" clip-rule="evenodd" d="M-2.71126 17.6494L-2.63319 17.4779L37.6203 35.7818L37.5422 35.9538L-2.71126 17.6494Z" fill="white"/>
<path fill-rule="evenodd" clip-rule="evenodd" d="M-2.65918 17.5355L-2.58112 17.3635L37.6721 35.6679L37.5945 35.8394L-2.65918 17.5355Z" fill="white"/>
<path fill-rule="evenodd" clip-rule="evenodd" d="M-2.6071 17.4208L-2.52904 17.2494L37.7244 35.5533L37.6463 35.7248L-2.6071 17.4208Z" fill="white"/>
<path fill-rule="evenodd" clip-rule="evenodd" d="M-2.55524 17.3057L-2.47717 17.1343L37.7765 35.4382L37.6983 35.6101L-2.55524 17.3057Z" fill="white"/>
<path fill-rule="evenodd" clip-rule="evenodd" d="M-2.50316 17.1918L-2.42509 17.0199L37.8283 35.3243L37.7502 35.4957L-2.50316 17.1918Z" fill="white"/>
<path fill-rule="evenodd" clip-rule="evenodd" d="M-2.45086 17.0774L-2.37279 16.906L37.8808 35.2099L37.8027 35.3813L-2.45086 17.0774Z" fill="white"/>
<path fill-rule="evenodd" clip-rule="evenodd" d="M-2.39878 16.9632L-2.32071 16.7913L37.9325 35.0957L37.8549 35.2671L-2.39878 16.9632Z" fill="white"/>
<path fill-rule="evenodd" clip-rule="evenodd" d="M-2.34713 16.8484L-2.26906 16.6769L37.9844 34.9808L37.9063 35.1523L-2.34713 16.8484Z" fill="white"/>
<path fill-rule="evenodd" clip-rule="evenodd" d="M-2.29484 16.7339L-2.21677 16.5624L38.0369 34.8664L37.9588 35.0383L-2.29484 16.7339Z" fill="white"/>
<path fill-rule="evenodd" clip-rule="evenodd" d="M-2.24297 16.6198L-2.16485 16.4483L38.0885 34.7522L38.0104 34.9237L-2.24297 16.6198Z" fill="white"/>
<path fill-rule="evenodd" clip-rule="evenodd" d="M-2.19068 16.5053L-2.11261 16.3338L38.141 34.6378L38.0629 34.8097L-2.19068 16.5053Z" fill="white"/>
<path fill-rule="evenodd" clip-rule="evenodd" d="M-2.1386 16.391L-2.06058 16.219L38.1927 34.5229L38.1146 34.6949L-2.1386 16.391Z" fill="white"/>
<path fill-rule="evenodd" clip-rule="evenodd" d="M-2.08673 16.2764L-2.00866 16.1049L38.2449 34.4088L38.1667 34.5803L-2.08673 16.2764Z" fill="white"/>
<path fill-rule="evenodd" clip-rule="evenodd" d="M-2.03465 16.1617L-1.95658 15.9902L38.2971 34.2941L38.219 34.4661L-2.03465 16.1617Z" fill="white"/>
<path fill-rule="evenodd" clip-rule="evenodd" d="M-1.98257 16.0476L-1.9045 15.8756L38.3489 34.18L38.2708 34.3515L-1.98257 16.0476Z" fill="white"/>
<path fill-rule="evenodd" clip-rule="evenodd" d="M-1.93071 15.9329L-1.85264 15.7615L38.401 34.0654L38.3229 34.2368L-1.93071 15.9329Z" fill="white"/>
<path fill-rule="evenodd" clip-rule="evenodd" d="M-1.87863 15.819L-1.80061 15.647L38.4528 33.9514L38.3747 34.1229L-1.87863 15.819Z" fill="white"/>
<path fill-rule="evenodd" clip-rule="evenodd" d="M-1.82655 15.7039L-1.74848 15.5325L38.5051 33.8364L38.4269 34.0078L-1.82655 15.7039Z" fill="white"/>
<path fill-rule="evenodd" clip-rule="evenodd" d="M-1.77447 15.5894L-1.69645 15.418L38.5568 33.7219L38.4792 33.8938L-1.77447 15.5894Z" fill="white"/>
<path fill-rule="evenodd" clip-rule="evenodd" d="M-1.72239 15.4753L-1.64432 15.3034L38.6091 33.6078L38.531 33.7792L-1.72239 15.4753Z" fill="white"/>
<path fill-rule="evenodd" clip-rule="evenodd" d="M-1.67031 15.3607L-1.59224 15.1892L38.6614 33.4931L38.5833 33.6646L-1.67031 15.3607Z" fill="white"/>
<path fill-rule="evenodd" clip-rule="evenodd" d="M-1.61823 15.2465L-1.54016 15.0745L38.7132 33.3784L38.6351 33.5504L-1.61823 15.2465Z" fill="white"/>
<path fill-rule="evenodd" clip-rule="evenodd" d="M-1.56636 15.1319L-1.48824 14.9599L38.7653 33.2643L38.6872 33.4358L-1.56636 15.1319Z" fill="white"/>
<path fill-rule="evenodd" clip-rule="evenodd" d="M-1.51449 15.0172L-1.43648 14.8457L38.8168 33.1496L38.7392 33.3216L-1.51449 15.0172Z" fill="white"/>
<path fill-rule="evenodd" clip-rule="evenodd" d="M-1.4622 14.9029L-1.38413 14.7309L38.8694 33.0353L38.7912 33.2068L-1.4622 14.9029Z" fill="white"/>
<path fill-rule="evenodd" clip-rule="evenodd" d="M-1.41012 14.7885L-1.33205 14.617L38.9216 32.9209L38.8435 33.0924L-1.41012 14.7885Z" fill="white"/>
<path fill-rule="evenodd" clip-rule="evenodd" d="M-1.35825 14.674L-1.28018 14.5025L38.9732 32.8064L38.8951 32.9784L-1.35825 14.674Z" fill="white"/>
<path fill-rule="evenodd" clip-rule="evenodd" d="M-1.30617 14.5597L-1.22811 14.3877L39.0255 32.6921L38.9474 32.8636L-1.30617 14.5597Z" fill="white"/>
<path fill-rule="evenodd" clip-rule="evenodd" d="M-1.25388 14.4452L-1.17586 14.2737L39.0775 32.5776L38.9994 32.7496L-1.25388 14.4452Z" fill="white"/>
<path fill-rule="evenodd" clip-rule="evenodd" d="M-1.20223 14.3311L-1.12421 14.1591L39.1293 32.4635L39.0512 32.635L-1.20223 14.3311Z" fill="white"/>
<path fill-rule="evenodd" clip-rule="evenodd" d="M-1.14993 14.2164L-1.07186 14.045L39.1818 32.3489L39.1037 32.5203L-1.14993 14.2164Z" fill="white"/>
<path fill-rule="evenodd" clip-rule="evenodd" d="M-1.09785 14.1015L-1.01978 13.9301L39.2336 32.234L39.1555 32.4059L-1.09785 14.1015Z" fill="white"/>
<path fill-rule="evenodd" clip-rule="evenodd" d="M-1.04599 13.9876L-0.967969 13.8157L39.2857 32.1201L39.2075 32.2915L-1.04599 13.9876Z" fill="white"/>
<path fill-rule="evenodd" clip-rule="evenodd" d="M-0.993907 13.873L-0.915838 13.7015L39.3375 32.0055L39.2594 32.1769L-0.993907 13.873Z" fill="white"/>
<path fill-rule="evenodd" clip-rule="evenodd" d="M-0.941614 13.7588L-0.863547 13.5868L39.39 31.8913L39.3119 32.0627L-0.941614 13.7588Z" fill="white"/>
<path fill-rule="evenodd" clip-rule="evenodd" d="M-0.889747 13.644L-0.811782 13.4725L39.442 31.7764L39.3639 31.9479L-0.889747 13.644Z" fill="white"/>
<path fill-rule="evenodd" clip-rule="evenodd" d="M-0.837667 13.5293L-0.7596 13.3578L39.4938 31.6617L39.4157 31.8337L-0.837667 13.5293Z" fill="white"/>
<path fill-rule="evenodd" clip-rule="evenodd" d="M-0.785801 13.4152L-0.707731 13.2432L39.5459 31.5476L39.4678 31.7191L-0.785801 13.4152Z" fill="white"/>
<path fill-rule="evenodd" clip-rule="evenodd" d="M-0.733721 13.3008L-0.655651 13.1293L39.5977 31.4332L39.5196 31.6047L-0.733721 13.3008Z" fill="white"/>
<path fill-rule="evenodd" clip-rule="evenodd" d="M-0.681641 13.1866L-0.603571 13.0146L39.65 31.3185L39.5718 31.4905L-0.681641 13.1866Z" fill="white"/>
<path fill-rule="evenodd" clip-rule="evenodd" d="M-0.629775 13.0715L-0.551754 12.9001L39.7015 31.204L39.6239 31.3754L-0.629775 13.0715Z" fill="white"/>
<path fill-rule="evenodd" clip-rule="evenodd" d="M-0.577482 12.957L-0.499412 12.7856L39.7541 31.0895L39.6759 31.2615L-0.577482 12.957Z" fill="white"/>
<path fill-rule="evenodd" clip-rule="evenodd" d="M-0.525402 12.8431L-0.447332 12.6712L39.8063 30.9756L39.7282 31.1471L-0.525402 12.8431Z" fill="white"/>
<path fill-rule="evenodd" clip-rule="evenodd" d="M-0.473535 12.7285L-0.395465 12.5571L39.8579 30.861L39.7798 31.0324L-0.473535 12.7285Z" fill="white"/>
<path fill-rule="evenodd" clip-rule="evenodd" d="M-0.421455 12.6138L-0.343385 12.4424L39.9102 30.7463L39.8321 30.9182L-0.421455 12.6138Z" fill="white"/>
<path fill-rule="evenodd" clip-rule="evenodd" d="M-0.369375 12.4997L-0.291305 12.3277L39.962 30.6322L39.8844 30.8036L-0.369375 12.4997Z" fill="white"/>
<path fill-rule="evenodd" clip-rule="evenodd" d="M-0.317509 12.385L-0.239439 12.2136L40.014 30.5175L39.9359 30.6894L-0.317509 12.385Z" fill="white"/>
<path fill-rule="evenodd" clip-rule="evenodd" d="M-0.265216 12.2711L-0.187146 12.0992L40.0665 30.4036L39.9884 30.575L-0.265216 12.2711Z" fill="white"/>
<path fill-rule="evenodd" clip-rule="evenodd" d="M-0.213135 12.1563L-0.135066 11.9848L40.1184 30.2887L40.0402 30.4602L-0.213135 12.1563Z" fill="white"/>
<path fill-rule="evenodd" clip-rule="evenodd" d="M-0.161269 12.0416L-0.0831993 11.8701L40.1704 30.174L40.0923 30.346L-0.161269 12.0416Z" fill="white"/>
<path fill-rule="evenodd" clip-rule="evenodd" d="M-0.109189 11.9275L-0.0311191 11.7555L40.2222 30.0599L40.1441 30.2314L-0.109189 11.9275Z" fill="white"/>
<path fill-rule="evenodd" clip-rule="evenodd" d="M-0.057323 11.8128L0.0207448 11.6413L40.2743 29.9452L40.1962 30.1172L-0.057323 11.8128Z" fill="white"/>
<path fill-rule="evenodd" clip-rule="evenodd" d="M-0.00524282 11.6987L0.0727229 11.5267L40.3265 29.8311L40.2484 30.0026L-0.00524282 11.6987Z" fill="white"/>
<path fill-rule="evenodd" clip-rule="evenodd" d="M0.0468371 11.5841L0.124905 11.4126L40.3783 29.7165L40.3002 29.888L0.0468371 11.5841Z" fill="white"/>
<path fill-rule="evenodd" clip-rule="evenodd" d="M0.0989172 11.4693L0.176987 11.2979L40.4306 29.6018L40.3525 29.7738L0.0989172 11.4693Z" fill="white"/>
<path fill-rule="evenodd" clip-rule="evenodd" d="M0.150997 11.3552L0.229014 11.1833L40.4824 29.4877L40.4043 29.6591L0.150997 11.3552Z" fill="white"/>
<path fill-rule="evenodd" clip-rule="evenodd" d="M0.203077 11.2405L0.281147 11.0691L40.5347 29.373L40.4566 29.545L0.203077 11.2405Z" fill="white"/>
<path fill-rule="evenodd" clip-rule="evenodd" d="M0.255157 11.1261L0.333226 10.9547L40.5865 29.2591L40.5089 29.4305L0.255157 11.1261Z" fill="white"/>
<path fill-rule="evenodd" clip-rule="evenodd" d="M0.307236 11.0118L0.385254 10.8404L40.6387 29.1443L40.5606 29.3157L0.307236 11.0118Z" fill="white"/>
<path fill-rule="evenodd" clip-rule="evenodd" d="M0.359103 10.8971L0.437171 10.7257L40.6908 29.0296L40.6127 29.2015L0.359103 10.8971Z" fill="white"/>
<path fill-rule="evenodd" clip-rule="evenodd" d="M0.410969 10.783L0.489037 10.611L40.7424 28.9155L40.6643 29.0869L0.410969 10.783Z" fill="white"/>
<path fill-rule="evenodd" clip-rule="evenodd" d="M0.463263 10.6684L0.541333 10.4969L40.7949 28.8008L40.7168 28.9723L0.463263 10.6684Z" fill="white"/>
<path fill-rule="evenodd" clip-rule="evenodd" d="M0.515343 10.5542L0.593462 10.3822L40.8467 28.6861L40.7691 28.8581L0.515343 10.5542Z" fill="white"/>
<path fill-rule="evenodd" clip-rule="evenodd" d="M0.567209 10.4398L0.645279 10.2678L40.8988 28.5722L40.8206 28.7437L0.567209 10.4398Z" fill="white"/>
<path fill-rule="evenodd" clip-rule="evenodd" d="M0.619289 10.3253L0.697307 10.1538L40.951 28.4577L40.8729 28.6297L0.619289 10.3253Z" fill="white"/>
<path fill-rule="evenodd" clip-rule="evenodd" d="M0.671369 10.211L0.749489 10.039L41.0029 28.3434L40.9247 28.5149L0.671369 10.211Z" fill="white"/>
<path fill-rule="evenodd" clip-rule="evenodd" d="M0.723449 10.0961L0.801519 9.92468L41.0551 28.2286L40.977 28.4001L0.723449 10.0961Z" fill="white"/>
<path fill-rule="evenodd" clip-rule="evenodd" d="M0.775315 9.98166L0.853385 9.8102L41.1067 28.1141L41.0286 28.2861L0.775315 9.98166Z" fill="white"/>
<path fill-rule="evenodd" clip-rule="evenodd" d="M0.827609 9.86734L0.905679 9.69538L41.1592 27.9998L41.0811 28.1712L0.827609 9.86734Z" fill="white"/>
<path fill-rule="evenodd" clip-rule="evenodd" d="M0.879475 9.75285L0.957444 9.5814L41.2112 27.8853L41.1331 28.0573L0.879475 9.75285Z" fill="white"/>
<path fill-rule="evenodd" clip-rule="evenodd" d="M0.931555 9.63874L1.00962 9.46677L41.2631 27.7712L41.1849 27.9426L0.931555 9.63874Z" fill="white"/>
<path fill-rule="evenodd" clip-rule="evenodd" d="M0.983848 9.5239L1.06192 9.35245L41.3156 27.6564L41.2374 27.8278L0.983848 9.5239Z" fill="white"/>
<path fill-rule="evenodd" clip-rule="evenodd" d="M1.03572 9.40971L1.11373 9.23775L41.3671 27.5417L41.289 27.7136L1.03572 9.40971Z" fill="white"/>
<path fill-rule="evenodd" clip-rule="evenodd" d="M1.08779 9.29531L1.16586 9.12334L41.4194 27.4278L41.3413 27.5992L1.08779 9.29531Z" fill="white"/>
<path fill-rule="evenodd" clip-rule="evenodd" d="M1.13966 9.1804L1.21773 9.00894L41.471 27.3129L41.3934 27.4848L1.13966 9.1804Z" fill="white"/>
<path fill-rule="evenodd" clip-rule="evenodd" d="M1.19174 9.0665L1.26981 8.89453L41.5232 27.1984L41.4451 27.3704L1.19174 9.0665Z" fill="white"/>
<path fill-rule="evenodd" clip-rule="evenodd" d="M1.24382 8.95167L1.32184 8.78021L41.5755 27.0841L41.4974 27.2556L1.24382 8.95167Z" fill="white"/>
<path fill-rule="evenodd" clip-rule="evenodd" d="M1.2959 8.83719L1.37397 8.66573L41.6273 26.9696L41.5492 27.1416L1.2959 8.83719Z" fill="white"/>
<path fill-rule="evenodd" clip-rule="evenodd" d="M1.34777 8.72286L1.42589 8.55089L41.6794 26.8553L41.6013 27.0268L1.34777 8.72286Z" fill="white"/>
<path fill-rule="evenodd" clip-rule="evenodd" d="M1.40006 8.60845L1.47813 8.43699L41.7314 26.7409L41.6538 26.9124L1.40006 8.60845Z" fill="white"/>
<path fill-rule="evenodd" clip-rule="evenodd" d="M1.45214 8.49426L1.53021 8.32229L41.7837 26.6267L41.7056 26.7982L1.45214 8.49426Z" fill="white"/>
<path fill-rule="evenodd" clip-rule="evenodd" d="M1.50401 8.37943L1.58203 8.20797L41.8358 26.5119L41.7576 26.6833L1.50401 8.37943Z" fill="white"/>
<path fill-rule="evenodd" clip-rule="evenodd" d="M1.55609 8.26495L1.63416 8.09348L41.8875 26.3974L41.8094 26.5694L1.55609 8.26495Z" fill="white"/>
<path fill-rule="evenodd" clip-rule="evenodd" d="M1.60795 8.15083L1.68602 7.97886L41.9396 26.2833L41.8615 26.4547L1.60795 8.15083Z" fill="white"/>
<path fill-rule="evenodd" clip-rule="evenodd" d="M1.66025 8.036L1.73831 7.86455L41.9916 26.1685L41.9135 26.3399L1.66025 8.036Z" fill="white"/>
<path fill-rule="evenodd" clip-rule="evenodd" d="M1.71233 7.92152L1.79034 7.75006L42.0439 26.054L41.9658 26.2259L1.71233 7.92152Z" fill="white"/>
<path fill-rule="evenodd" clip-rule="evenodd" d="M1.76419 7.80741L1.84226 7.63595L42.096 25.9399L42.0179 26.1113L1.76419 7.80741Z" fill="white"/>
<path fill-rule="evenodd" clip-rule="evenodd" d="M1.81627 7.6927L1.89434 7.52124L42.1478 25.8252L42.0697 25.9971L1.81627 7.6927Z" fill="white"/>
<path fill-rule="evenodd" clip-rule="evenodd" d="M1.86857 7.57859L1.94658 7.40663L42.2002 25.711L42.1221 25.8825L1.86857 7.57859Z" fill="white"/>
<path fill-rule="evenodd" clip-rule="evenodd" d="M1.92043 7.46398L1.9985 7.29252L42.2518 25.5964L42.1737 25.7679L1.92043 7.46398Z" fill="white"/>
<path fill-rule="evenodd" clip-rule="evenodd" d="M1.9723 7.34928L2.05037 7.17782L42.3039 25.4817L42.2258 25.6537L1.9723 7.34928Z" fill="white"/>
<path fill-rule="evenodd" clip-rule="evenodd" d="M2.02438 7.23495L2.10245 7.06349L42.3562 25.3674L42.2781 25.5389L2.02438 7.23495Z" fill="white"/>
<path fill-rule="evenodd" clip-rule="evenodd" d="M2.07646 7.12046L2.15453 6.94901L42.408 25.2529L42.3298 25.4249L2.07646 7.12046Z" fill="white"/>
<path fill-rule="evenodd" clip-rule="evenodd" d="M2.12854 7.00636L2.20656 6.8344L42.4602 25.1388L42.3821 25.3103L2.12854 7.00636Z" fill="white"/>
<path fill-rule="evenodd" clip-rule="evenodd" d="M2.18083 6.89152L2.2589 6.72007L42.5123 25.024L42.4342 25.1954L2.18083 6.89152Z" fill="white"/>
<path fill-rule="evenodd" clip-rule="evenodd" d="M2.2327 6.77703L2.31077 6.60558L42.5643 24.9095L42.4862 25.0815L2.2327 6.77703Z" fill="white"/>
<path fill-rule="evenodd" clip-rule="evenodd" d="M2.28457 6.66292L2.36264 6.49096L42.6159 24.7954L42.5383 24.9668L2.28457 6.66292Z" fill="white"/>
<path fill-rule="evenodd" clip-rule="evenodd" d="M2.33665 6.54865L2.41472 6.37719L42.6682 24.6811L42.5901 24.8531L2.33665 6.54865Z" fill="white"/>
<path fill-rule="evenodd" clip-rule="evenodd" d="M2.38873 6.43412L2.46674 6.26215L42.7205 24.5661L42.6424 24.738L2.38873 6.43412Z" fill="white"/>
<path fill-rule="evenodd" clip-rule="evenodd" d="M2.44102 6.31971L2.51909 6.14825L42.7725 24.4522L42.6943 24.6236L2.44102 6.31971Z" fill="white"/>
<path fill-rule="evenodd" clip-rule="evenodd" d="M2.49267 6.20501L2.57074 6.03355L42.8243 24.3375L42.7462 24.5094L2.49267 6.20501Z" fill="white"/>
<path fill-rule="evenodd" clip-rule="evenodd" d="M2.54475 6.09069L2.62282 5.91873L42.8762 24.2231L42.7985 24.3946L2.54475 6.09069Z" fill="white"/>
<path fill-rule="evenodd" clip-rule="evenodd" d="M2.59704 5.97607L2.67511 5.80461L42.9286 24.1085L42.8505 24.28L2.59704 5.97607Z" fill="white"/>
<path fill-rule="evenodd" clip-rule="evenodd" d="M2.64912 5.86188L2.72719 5.68991L42.9809 23.9938L42.9028 24.1658L2.64912 5.86188Z" fill="white"/>
<path fill-rule="evenodd" clip-rule="evenodd" d="M2.70078 5.74747L2.77885 5.57601L43.0323 23.8799L42.9542 24.0514L2.70078 5.74747Z" fill="white"/>
<path fill-rule="evenodd" clip-rule="evenodd" d="M2.75307 5.63256L2.83109 5.4611L43.0847 23.765L43.0066 23.937L2.75307 5.63256Z" fill="white"/>
<path fill-rule="evenodd" clip-rule="evenodd" d="M2.80494 5.51866L2.88301 5.34669L43.1363 23.6511L43.0582 23.8226L2.80494 5.51866Z" fill="white"/>
<path fill-rule="evenodd" clip-rule="evenodd" d="M2.85702 5.40383L2.93508 5.23237L43.1886 23.5363L43.1105 23.7077L2.85702 5.40383Z" fill="white"/>
<path fill-rule="evenodd" clip-rule="evenodd" d="M2.90931 5.28913L2.98738 5.11767L43.2412 23.4216L43.163 23.5935L2.90931 5.28913Z" fill="white"/>
<path fill-rule="evenodd" clip-rule="evenodd" d="M2.96118 5.17502L3.03924 5.00306L43.2927 23.3075L43.2146 23.4789L2.96118 5.17502Z" fill="white"/>
<path fill-rule="evenodd" clip-rule="evenodd" d="M3.01326 5.06054L3.09132 4.88908L43.345 23.193L43.2669 23.365L3.01326 5.06054Z" fill="white"/>
<path fill-rule="evenodd" clip-rule="evenodd" d="M3.06534 4.94664L3.14335 4.77467L43.3967 23.0791L43.3186 23.2505L3.06534 4.94664Z" fill="white"/>
<path fill-rule="evenodd" clip-rule="evenodd" d="M3.1172 4.83159L3.19527 4.66013L43.4488 22.964L43.3707 23.1355L3.1172 4.83159Z" fill="white"/>
<path fill-rule="evenodd" clip-rule="evenodd" d="M3.1695 4.71761L3.24757 4.54565L43.5008 22.8496L43.4232 23.0215L3.1695 4.71761Z" fill="white"/>
<path fill-rule="evenodd" clip-rule="evenodd" d="M3.22158 4.60299L3.29959 4.43103L43.5531 22.7354L43.475 22.9069L3.22158 4.60299Z" fill="white"/>
<path fill-rule="evenodd" clip-rule="evenodd" d="M3.27344 4.48817L3.35151 4.3167L43.6052 22.6206L43.5271 22.7921L3.27344 4.48817Z" fill="white"/>
<path fill-rule="evenodd" clip-rule="evenodd" d="M3.32552 4.37419L3.40359 4.20222L43.657 22.5066L43.5788 22.6781L3.32552 4.37419Z" fill="white"/>
<path fill-rule="evenodd" clip-rule="evenodd" d="M3.3776 4.25957L3.45562 4.08811L43.7093 22.392L43.6311 22.5635L3.3776 4.25957Z" fill="white"/>
<path fill-rule="evenodd" clip-rule="evenodd" d="M3.42947 4.14487L3.50759 3.97342L43.7609 22.2773L43.6833 22.4493L3.42947 4.14487Z" fill="white"/>
<path fill-rule="evenodd" clip-rule="evenodd" d="M3.48155 4.03076L3.55962 3.85879L43.8131 22.1632L43.735 22.3347L3.48155 4.03076Z" fill="white"/>
<path fill-rule="evenodd" clip-rule="evenodd" d="M3.53342 3.91627L3.61149 3.74481L43.8652 22.0487L43.7871 22.2207L3.53342 3.91627Z" fill="white"/>
<path fill-rule="evenodd" clip-rule="evenodd" d="M3.58571 3.80194L3.66383 3.62998L43.9172 21.9344L43.8391 22.1059L3.58571 3.80194Z" fill="white"/>
<path fill-rule="evenodd" clip-rule="evenodd" d="M3.63779 3.68733L3.71581 3.51587L43.9694 21.8198L43.8913 21.9912L3.63779 3.68733Z" fill="white"/>
<path fill-rule="evenodd" clip-rule="evenodd" d="M3.68966 3.57263L3.76773 3.40117L44.0211 21.7051L43.9429 21.877L3.68966 3.57263Z" fill="white"/>
<path fill-rule="evenodd" clip-rule="evenodd" d="M3.74174 3.45852L3.81981 3.28655L44.0733 21.591L43.9952 21.7624L3.74174 3.45852Z" fill="white"/>
<path fill-rule="evenodd" clip-rule="evenodd" d="M3.79403 3.3439L3.87205 3.17244L44.1258 21.4764L44.0477 21.6478L3.79403 3.3439Z" fill="white"/>
<path fill-rule="evenodd" clip-rule="evenodd" d="M3.8459 3.22971L3.92397 3.05775L44.1774 21.3617L44.0993 21.5336L3.8459 3.22971Z" fill="white"/>
<path fill-rule="evenodd" clip-rule="evenodd" d="M3.89798 3.11509L3.97605 2.94312L44.2297 21.2475L44.1516 21.419L3.89798 3.11509Z" fill="white"/>
<path fill-rule="evenodd" clip-rule="evenodd" d="M3.95006 3.00039L4.02807 2.82893L44.2815 21.1328L44.2033 21.3048L3.95006 3.00039Z" fill="white"/>
<path fill-rule="evenodd" clip-rule="evenodd" d="M4.00192 2.88628L4.07994 2.71431L44.3335 21.0187L44.2554 21.1902L4.00192 2.88628Z" fill="white"/>
<path fill-rule="evenodd" clip-rule="evenodd" d="M4.054 2.77166L4.13207 2.6002L44.3853 20.9041L44.3077 21.0756L4.054 2.77166Z" fill="white"/>
<path fill-rule="evenodd" clip-rule="evenodd" d="M4.1063 2.65768L4.18437 2.48571L44.4378 20.7896L44.3597 20.9616L4.1063 2.65768Z" fill="white"/>
<path fill-rule="evenodd" clip-rule="evenodd" d="M4.15816 2.54285L4.23623 2.37139L44.4899 20.6753L44.4118 20.8468L4.15816 2.54285Z" fill="white"/>
<path fill-rule="evenodd" clip-rule="evenodd" d="M4.21003 2.42836L4.2881 2.25691L44.5415 20.5608L44.4634 20.7328L4.21003 2.42836Z" fill="white"/>
<path fill-rule="evenodd" clip-rule="evenodd" d="M4.26211 2.31404L4.34013 2.14208L44.5938 20.4465L44.5156 20.618L4.26211 2.31404Z" fill="white"/>
<path fill-rule="evenodd" clip-rule="evenodd" d="M4.31419 2.19942L4.39226 2.02797L44.6455 20.3319L44.5679 20.5033L4.31419 2.19942Z" fill="white"/>
<path fill-rule="evenodd" clip-rule="evenodd" d="M4.36648 2.08472L4.44455 1.91326L44.698 20.2172L44.6199 20.3891L4.36648 2.08472Z" fill="white"/>
<path fill-rule="evenodd" clip-rule="evenodd" d="M4.41856 1.97082L4.49663 1.79886L44.7504 20.1033L44.6722 20.2747L4.41856 1.97082Z" fill="white"/>
<path fill-rule="evenodd" clip-rule="evenodd" d="M4.47043 1.85634L4.5485 1.68488L44.8019 19.9888L44.7238 20.1608L4.47043 1.85634Z" fill="white"/>
<path fill-rule="evenodd" clip-rule="evenodd" d="M4.52251 1.7418L4.60058 1.56984L44.8542 19.8737L44.7761 20.0457L4.52251 1.7418Z" fill="white"/>
<path fill-rule="evenodd" clip-rule="evenodd" d="M4.57437 1.6274L4.65244 1.45594L44.9058 19.7598L44.8277 19.9313L4.57437 1.6274Z" fill="white"/>
<path fill-rule="evenodd" clip-rule="evenodd" d="M4.62645 1.5127L4.70442 1.34124L44.958 19.6451L44.8799 19.8171L4.62645 1.5127Z" fill="white"/>
<path fill-rule="evenodd" clip-rule="evenodd" d="M4.67853 1.39859L4.7566 1.22663L45.0103 19.531L44.9322 19.7025L4.67853 1.39859Z" fill="white"/>
<path fill-rule="evenodd" clip-rule="evenodd" d="M4.7304 1.28389L4.80847 1.11244L45.0619 19.4163L44.9838 19.5883L4.7304 1.28389Z" fill="white"/>
<path fill-rule="evenodd" clip-rule="evenodd" d="M4.78248 1.16978L4.8606 0.99781L45.1142 19.3022L45.0361 19.4737L4.78248 1.16978Z" fill="white"/>
<path fill-rule="evenodd" clip-rule="evenodd" d="M4.83477 1.05494L4.91284 0.882978L45.1662 19.1874L45.0881 19.3589L4.83477 1.05494Z" fill="white"/>
<path fill-rule="evenodd" clip-rule="evenodd" d="M4.88685 0.940963L4.96487 0.769001L45.2185 19.0729L45.1403 19.2449L4.88685 0.940963Z" fill="white"/>
<path fill-rule="evenodd" clip-rule="evenodd" d="M4.93872 0.826348L5.01679 0.654381L45.2706 18.9588L45.1924 19.1303L4.93872 0.826348Z" fill="white"/>
<path fill-rule="evenodd" clip-rule="evenodd" d="M4.9908 0.711519L5.06887 0.540058L45.3223 18.844L45.2442 19.0154L4.9908 0.711519Z" fill="white"/>
<path fill-rule="evenodd" clip-rule="evenodd" d="M5.04267 0.597538L5.12073 0.425571L45.3744 18.7295L45.2963 18.9014L5.04267 0.597538Z" fill="white"/>
<path fill-rule="evenodd" clip-rule="evenodd" d="M5.09496 0.482921L5.17303 0.311464L45.4264 18.6154L45.3483 18.7868L5.09496 0.482921Z" fill="white"/>
<path fill-rule="evenodd" clip-rule="evenodd" d="M5.14704 0.36844L5.22506 0.196982L45.4787 18.5009L45.4006 18.6729L5.14704 0.36844Z" fill="white"/>
<path fill-rule="evenodd" clip-rule="evenodd" d="M5.19891 0.253896L5.27698 0.0819287L45.5303 18.3863L45.4526 18.5578L5.19891 0.253896Z" fill="white"/>
<path fill-rule="evenodd" clip-rule="evenodd" d="M5.25099 0.139489L5.32906 -0.0319681L45.5825 18.2719L45.5044 18.4434L5.25099 0.139489Z" fill="white"/>
<path fill-rule="evenodd" clip-rule="evenodd" d="M5.30307 0.0252948L5.38108 -0.146667L45.6348 18.1572L45.5567 18.3292L5.30307 0.0252948Z" fill="white"/>
<path fill-rule="evenodd" clip-rule="evenodd" d="M5.35493 -0.0893183L5.433 -0.261286L45.6864 18.0431L45.6083 18.2146L5.35493 -0.0893183Z" fill="white"/>
<path fill-rule="evenodd" clip-rule="evenodd" d="M5.40701 -0.204015L5.48508 -0.375477L45.7387 17.9284L45.6606 18.1004L5.40701 -0.204015Z" fill="white"/>
<path fill-rule="evenodd" clip-rule="evenodd" d="M5.45909 -0.31813L5.53716 -0.490097L45.7905 17.8143L45.7129 17.9858L5.45909 -0.31813Z" fill="white"/>
<path fill-rule="evenodd" clip-rule="evenodd" d="M5.51117 -0.432746L5.58919 -0.604203L45.8427 17.6997L45.7646 17.8712L5.51117 -0.432746Z" fill="white"/>
<path fill-rule="evenodd" clip-rule="evenodd" d="M5.56325 -0.547441L5.64132 -0.718899L45.8951 17.585L45.8169 17.757L5.56325 -0.547441Z" fill="white"/>
<path fill-rule="evenodd" clip-rule="evenodd" d="M5.61533 -0.661557L5.6934 -0.833524L45.9468 17.4709L45.8687 17.6424L5.61533 -0.661557Z" fill="white"/>
<path fill-rule="evenodd" clip-rule="evenodd" d="M5.6672 -0.776177L5.74532 -0.947634L45.999 17.3563L45.9208 17.5277L5.6672 -0.776177Z" fill="white"/>
<path fill-rule="evenodd" clip-rule="evenodd" d="M5.71949 -0.890372L5.79756 -1.06233L46.0509 17.2421L45.9728 17.4135L5.71949 -0.890372Z" fill="white"/>
<path fill-rule="evenodd" clip-rule="evenodd" d="M5.77136 -1.00498L5.84943 -1.17644L46.103 17.1275L46.0249 17.2989L5.77136 -1.00498Z" fill="white"/>
<path fill-rule="evenodd" clip-rule="evenodd" d="M5.82344 -1.11947L5.90156 -1.29093L46.1553 17.013L46.0772 17.1849L5.82344 -1.11947Z" fill="white"/>
<path fill-rule="evenodd" clip-rule="evenodd" d="M5.87552 -1.2338L5.95359 -1.40576L46.207 16.8987L46.1289 17.0701L5.87552 -1.2338Z" fill="white"/>
<path fill-rule="evenodd" clip-rule="evenodd" d="M5.92738 -1.34841L6.00545 -1.51987L46.2591 16.784L46.181 16.9555L5.92738 -1.34841Z" fill="white"/>
<path fill-rule="evenodd" clip-rule="evenodd" d="M5.97946 -1.46239L6.05748 -1.63435L46.3109 16.6696L46.2327 16.8415L5.97946 -1.46239Z" fill="white"/>
<path fill-rule="evenodd" clip-rule="evenodd" d="M6.03176 -1.57701L6.10983 -1.74847L46.3634 16.5554L46.2853 16.7269L6.03176 -1.57701Z" fill="white"/>
<path fill-rule="evenodd" clip-rule="evenodd" d="M6.08362 -1.69171L6.16169 -1.86317L46.415 16.4407L46.3374 16.6127L6.08362 -1.69171Z" fill="white"/>
<path fill-rule="evenodd" clip-rule="evenodd" d="M6.1357 -1.80604L6.21367 -1.978L46.4672 16.3264L46.3891 16.4979L6.1357 -1.80604Z" fill="white"/>
<path fill-rule="evenodd" clip-rule="evenodd" d="M6.18757 -1.92044L6.26564 -2.0919L46.5193 16.212L46.4412 16.3835L6.18757 -1.92044Z" fill="white"/>
<path fill-rule="evenodd" clip-rule="evenodd" d="M6.23965 -2.03484L6.31772 -2.20681L46.5711 16.0971L46.493 16.2691L6.23965 -2.03484Z" fill="white"/>
<path fill-rule="evenodd" clip-rule="evenodd" d="M6.29194 -2.14925L6.37001 -2.32071L46.6236 15.9832L46.5455 16.1547L6.29194 -2.14925Z" fill="white"/>
<path fill-rule="evenodd" clip-rule="evenodd" d="M6.34402 -2.26395L6.42214 -2.43541L46.6754 15.8685L46.5978 16.0405L6.34402 -2.26395Z" fill="white"/>
<path fill-rule="evenodd" clip-rule="evenodd" d="M6.39589 -2.37806L6.47391 -2.55002L46.7274 15.7544L46.6493 15.9258L6.39589 -2.37806Z" fill="white"/>
<path fill-rule="evenodd" clip-rule="evenodd" d="M6.44797 -2.49289L6.52604 -2.66435L46.7798 15.6396L46.7017 15.811L6.44797 -2.49289Z" fill="white"/>
<path fill-rule="evenodd" clip-rule="evenodd" d="M6.50005 -2.60708L6.57817 -2.77905L46.8316 15.5249L46.7534 15.6968L6.50005 -2.60708Z" fill="white"/>
<path fill-rule="evenodd" clip-rule="evenodd" d="M6.55192 -2.72149L6.62999 -2.89346L46.8836 15.411L46.8055 15.5824L6.55192 -2.72149Z" fill="white"/>
<path fill-rule="evenodd" clip-rule="evenodd" d="M6.604 -2.83619L6.68207 -3.00765L46.9354 15.2963L46.8573 15.4682L6.604 -2.83619Z" fill="white"/>
<path fill-rule="evenodd" clip-rule="evenodd" d="M6.65586 -2.9503L8.57614 -7.17334L48.8299 11.1306L46.9093 15.3536L6.65586 -2.9503Z" fill="white"/>
</g>
</svg>
