<svg width="1320" height="662" viewBox="0 0 1320 662" fill="none" xmlns="http://www.w3.org/2000/svg">
<g clip-path="url(#clip0_3907_3146)">
<mask id="mask0_3907_3146" style="mask-type:alpha" maskUnits="userSpaceOnUse" x="-372" y="-213" width="2135" height="1537">
<rect x="-371.023" y="347.369" width="1920" height="1020" transform="rotate(-16.9496 -371.023 347.369)" fill="#F3F3F3"/>
<rect x="-370.399" y="347.702" width="1919" height="1019" transform="rotate(-16.9496 -370.399 347.702)" stroke="white" stroke-opacity="0.6"/>
</mask>
<g mask="url(#mask0_3907_3146)">
<mask id="mask1_3907_3146" style="mask-type:alpha" maskUnits="userSpaceOnUse" x="-534" y="-177" width="2394" height="1577">
<rect x="-257.87" y="-176.369" width="2199.06" height="1020" transform="rotate(15.6756 -257.87 -176.369)" fill="#F2F2F2"/>
<rect x="-257.523" y="-175.752" width="2198.06" height="1019" transform="rotate(15.6756 -257.523 -175.752)" stroke="white" stroke-opacity="0.6"/>
</mask>
<g mask="url(#mask1_3907_3146)">
<mask id="mask2_3907_3146" style="mask-type:luminance" maskUnits="userSpaceOnUse" x="-575" y="-615" width="2531" height="2171">
<path d="M1955.99 -243.819L-350.205 -614.283L-574.668 1185.15L1731.53 1555.61L1955.99 -243.819Z" fill="white"/>
<path d="M1955.44 -243.402L1731.1 1555.03L-574.112 1184.73L-349.773 -613.708L1955.44 -243.402Z" stroke="white"/>
</mask>
<g mask="url(#mask2_3907_3146)">
<g opacity="0.35">
<path d="M-1428.67 -565.508C-274.893 -416.527 1214.06 1956.19 2059.91 1090.82" stroke="white" stroke-opacity="0.6" stroke-miterlimit="10"/>
<path d="M-1427.5 -528.949C-230.298 -347.121 1199.68 1876.04 2080.39 1079.16" stroke="white" stroke-opacity="0.6" stroke-miterlimit="10"/>
<path d="M-1426.33 -492.388C-185.699 -277.711 1185.3 1795.88 2100.87 1067.51" stroke="white" stroke-opacity="0.6" stroke-miterlimit="10"/>
<path d="M-1425.17 -455.83C-141.102 -208.308 1170.92 1715.73 2121.35 1055.85" stroke="white" stroke-opacity="0.6" stroke-miterlimit="10"/>
<path d="M-1423.99 -419.271C-96.5037 -138.902 1156.54 1635.57 2141.84 1044.19" stroke="white" stroke-opacity="0.6" stroke-miterlimit="10"/>
<path d="M-1422.83 -382.713C-51.9084 -69.4955 1142.16 1555.42 2162.32 1032.53" stroke="white" stroke-opacity="0.6" stroke-miterlimit="10"/>
<path d="M-1421.66 -346.152C-7.31473 -0.0896225 1127.78 1475.26 2182.79 1020.87" stroke="white" stroke-opacity="0.6" stroke-miterlimit="10"/>
<path d="M-1420.49 -309.594C37.2837 69.3167 1113.4 1395.11 2203.28 1009.21" stroke="white" stroke-opacity="0.6" stroke-miterlimit="10"/>
<path d="M-1419.32 -273.035C81.8811 138.724 1099.02 1314.95 2223.76 997.554" stroke="white" stroke-opacity="0.6" stroke-miterlimit="10"/>
<path d="M-1418.15 -236.473C126.476 208.13 1084.63 1234.8 2244.24 985.894" stroke="white" stroke-opacity="0.6" stroke-miterlimit="10"/>
<path d="M-1416.98 -199.916C171.074 277.536 1070.26 1154.64 2264.72 974.236" stroke="white" stroke-opacity="0.6" stroke-miterlimit="10"/>
<path d="M-1415.81 -163.357C215.672 346.942 1055.87 1074.49 2285.2 962.576" stroke="white" stroke-opacity="0.6" stroke-miterlimit="10"/>
<path d="M-1414.65 -126.799C260.268 416.349 1041.49 994.336 2305.68 950.916" stroke="white" stroke-opacity="0.6" stroke-miterlimit="10"/>
<path d="M-1413.48 -90.2371C304.866 485.755 1027.11 914.183 2326.16 939.259" stroke="white" stroke-opacity="0.6" stroke-miterlimit="10"/>
<path d="M-1412.31 -53.6796C349.458 555.161 1012.73 834.026 2346.64 927.598" stroke="white" stroke-opacity="0.6" stroke-miterlimit="10"/>
<path d="M-1411.14 -17.1199C394.058 624.568 998.35 753.871 2367.12 915.942" stroke="white" stroke-opacity="0.6" stroke-miterlimit="10"/>
<path d="M-1409.97 19.4406C438.656 693.974 983.969 673.718 2387.6 904.281" stroke="white" stroke-opacity="0.6" stroke-miterlimit="10"/>
</g>
</g>
<mask id="mask3_3907_3146" style="mask-type:luminance" maskUnits="userSpaceOnUse" x="-575" y="-615" width="2531" height="2171">
<path d="M1955.99 -243.819L-350.205 -614.283L-574.668 1185.15L1731.53 1555.61L1955.99 -243.819Z" fill="white"/>
<path d="M1955.44 -243.402L1731.1 1555.03L-574.112 1184.73L-349.773 -613.708L1955.44 -243.402Z" stroke="white"/>
</mask>
<g mask="url(#mask3_3907_3146)">
<g opacity="0.58">
<path opacity="0.19" d="M-802.108 245.661C96.854 46.2136 2008.11 1485.27 2331.42 580.802" stroke="white" stroke-opacity="0.6" stroke-miterlimit="10"/>
<path opacity="0.2121" d="M-795.775 258.896C123.526 65.8891 1990.15 1457.77 2336.61 573.9" stroke="white" stroke-opacity="0.6" stroke-miterlimit="10"/>
<path opacity="0.2341" d="M-789.446 272.13C150.194 85.5631 1972.18 1430.27 2341.8 566.995" stroke="white" stroke-opacity="0.6" stroke-miterlimit="10"/>
<path opacity="0.2562" d="M-783.114 285.365C176.865 105.239 1954.21 1402.77 2346.99 560.094" stroke="white" stroke-opacity="0.6" stroke-miterlimit="10"/>
<path opacity="0.2782" d="M-776.783 298.6C203.535 124.916 1936.25 1375.28 2352.18 553.189" stroke="white" stroke-opacity="0.6" stroke-miterlimit="10"/>
<path opacity="0.3003" d="M-770.454 311.834C230.202 144.591 1918.28 1347.78 2357.37 546.287" stroke="white" stroke-opacity="0.6" stroke-miterlimit="10"/>
<path opacity="0.3224" d="M-764.121 325.069C256.874 164.266 1900.32 1320.28 2362.56 539.386" stroke="white" stroke-opacity="0.6" stroke-miterlimit="10"/>
<path opacity="0.3444" d="M-757.792 338.304C283.543 183.941 1882.35 1292.79 2367.75 532.482" stroke="white" stroke-opacity="0.6" stroke-miterlimit="10"/>
<path opacity="0.3665" d="M-751.462 351.539C310.214 203.617 1864.38 1265.29 2372.94 525.58" stroke="white" stroke-opacity="0.6" stroke-miterlimit="10"/>
<path opacity="0.3885" d="M-745.129 364.776C336.884 223.292 1846.42 1237.79 2378.13 518.676" stroke="white" stroke-opacity="0.6" stroke-miterlimit="10"/>
<path opacity="0.4106" d="M-738.8 378.01C363.551 242.966 1828.45 1210.3 2383.32 511.774" stroke="white" stroke-opacity="0.6" stroke-miterlimit="10"/>
<path opacity="0.4326" d="M-732.468 391.245C390.223 262.641 1810.49 1182.8 2388.51 504.869" stroke="white" stroke-opacity="0.6" stroke-miterlimit="10"/>
<path opacity="0.4547" d="M-726.135 404.481C416.894 282.319 1792.52 1155.3 2393.71 497.969" stroke="white" stroke-opacity="0.6" stroke-miterlimit="10"/>
<path opacity="0.4768" d="M-719.806 417.715C443.562 301.994 1774.56 1127.81 2398.9 491.064" stroke="white" stroke-opacity="0.6" stroke-miterlimit="10"/>
<path opacity="0.4988" d="M-713.475 430.949C470.232 321.668 1756.59 1100.31 2404.08 484.161" stroke="white" stroke-opacity="0.6" stroke-miterlimit="10"/>
<path opacity="0.5209" d="M-707.146 444.185C496.903 341.344 1738.62 1072.81 2409.28 477.258" stroke="white" stroke-opacity="0.6" stroke-miterlimit="10"/>
<path opacity="0.5429" d="M-700.814 457.419C523.57 361.019 1720.66 1045.31 2414.47 470.356" stroke="white" stroke-opacity="0.6" stroke-miterlimit="10"/>
<path opacity="0.565" d="M-694.483 470.655C550.243 380.695 1702.69 1017.82 2419.66 463.452" stroke="white" stroke-opacity="0.6" stroke-miterlimit="10"/>
<path opacity="0.5871" d="M-688.154 483.888C576.911 400.369 1684.73 990.318 2424.85 456.55" stroke="white" stroke-opacity="0.6" stroke-miterlimit="10"/>
<path opacity="0.6091" d="M-681.82 497.126C603.582 420.044 1666.76 962.824 2430.04 449.648" stroke="white" stroke-opacity="0.6" stroke-miterlimit="10"/>
<path opacity="0.6312" d="M-675.492 510.36C630.251 439.721 1648.8 935.325 2435.23 442.743" stroke="white" stroke-opacity="0.6" stroke-miterlimit="10"/>
<path opacity="0.6532" d="M-669.161 523.595C656.921 459.397 1630.83 907.828 2440.42 435.842" stroke="white" stroke-opacity="0.6" stroke-miterlimit="10"/>
<path opacity="0.6753" d="M-662.83 536.83C683.591 479.072 1612.86 880.333 2445.61 428.938" stroke="white" stroke-opacity="0.6" stroke-miterlimit="10"/>
<path opacity="0.6974" d="M-656.498 550.065C710.262 498.747 1594.9 852.835 2450.8 422.036" stroke="white" stroke-opacity="0.6" stroke-miterlimit="10"/>
<path opacity="0.7194" d="M-650.166 563.3C736.934 518.422 1576.93 825.338 2456 415.132" stroke="white" stroke-opacity="0.6" stroke-miterlimit="10"/>
<path opacity="0.7415" d="M-643.837 576.534C763.601 538.097 1558.97 797.839 2461.18 408.23" stroke="white" stroke-opacity="0.6" stroke-miterlimit="10"/>
<path opacity="0.7635" d="M-637.506 589.769C790.271 557.772 1541 770.342 2466.38 401.325" stroke="white" stroke-opacity="0.6" stroke-miterlimit="10"/>
<path opacity="0.7856" d="M-631.174 603.004C816.942 577.447 1523.03 742.847 2471.57 394.424" stroke="white" stroke-opacity="0.6" stroke-miterlimit="10"/>
<path opacity="0.8076" d="M-624.845 616.238C843.61 597.121 1505.07 715.348 2476.76 387.519" stroke="white" stroke-opacity="0.6" stroke-miterlimit="10"/>
<path opacity="0.8297" d="M-618.516 629.475C870.277 616.798 1487.1 687.852 2481.94 380.617" stroke="white" stroke-opacity="0.6" stroke-miterlimit="10"/>
<path opacity="0.8518" d="M-612.183 642.71C896.95 636.474 1469.14 660.355 2487.14 373.715" stroke="white" stroke-opacity="0.6" stroke-miterlimit="10"/>
<path opacity="0.8738" d="M-605.854 655.945C923.618 656.149 1451.17 632.857 2492.33 366.811" stroke="white" stroke-opacity="0.6" stroke-miterlimit="10"/>
<path opacity="0.8959" d="M-599.52 669.18C950.29 675.824 1433.21 605.362 2497.52 359.91" stroke="white" stroke-opacity="0.6" stroke-miterlimit="10"/>
<path opacity="0.9179" d="M-593.191 682.415C976.959 695.499 1415.24 577.865 2502.71 353.006" stroke="white" stroke-opacity="0.6" stroke-miterlimit="10"/>
<path opacity="0.94" d="M-586.862 695.649C1003.63 715.174 1397.27 550.367 2507.9 346.103" stroke="white" stroke-opacity="0.6" stroke-miterlimit="10"/>
</g>
</g>
</g>
</g>
</g>
<defs>
<clipPath id="clip0_3907_3146">
<rect width="1320" height="662" rx="40" fill="white"/>
</clipPath>
</defs>
</svg>
